<svg xmlns="http://www.w3.org/2000/svg" width="3840" height="3840"><path d="M1717,2195L2243,2462L2546,2161Z" fill="#711035" stroke="#711035" stroke-width="1.51"/><path d="M2546,2161L2050,1530L1717,2195Z" fill="#7a1236" stroke="#7a1236" stroke-width="1.51"/><path d="M2243,2462L2538,2602L2546,2161Z" fill="#670e34" stroke="#670e34" stroke-width="1.51"/><path d="M2546,2161L2353,1270L2050,1530Z" fill="#7f1437" stroke="#7f1437" stroke-width="1.51"/><path d="M2050,1530L1461,1425L1717,2195Z" fill="#8e1838" stroke="#8e1838" stroke-width="1.51"/><path d="M1611,585L1461,1425L2050,1530Z" fill="#a21f3c" stroke="#a21f3c" stroke-width="1.51"/><path d="M1461,1425L1210,1794L1717,2195Z" fill="#941a39" stroke="#941a39" stroke-width="1.51"/><path d="M2243,2462L2029,3049L2538,2602Z" fill="#640e34" stroke="#640e34" stroke-width="1.51"/><path d="M1717,2195L2029,3049L2243,2462Z" fill="#6e0f35" stroke="#6e0f35" stroke-width="1.51"/><path d="M1178,2894L2029,3049L1717,2195Z" fill="#761236" stroke="#761236" stroke-width="1.51"/><path d="M3294,2764L3462,1747L2546,2161Z" fill="#5d0f33" stroke="#5d0f33" stroke-width="1.51"/><path d="M2029,3049L2684,3156L2538,2602Z" fill="#5b0c33" stroke="#5b0c33" stroke-width="1.51"/><path d="M1210,1794L1178,2894L1717,2195Z" fill="#8a1839" stroke="#8a1839" stroke-width="1.51"/><path d="M1178,2894L1273,3053L2029,3049Z" fill="#751536" stroke="#751536" stroke-width="1.51"/><path d="M2882,3945L2945,3503L2684,3156Z" fill="#461030" stroke="#461030" stroke-width="1.51"/><path d="M2546,2161L3361,1353L2353,1270Z" fill="#771337" stroke="#771337" stroke-width="1.51"/><path d="M3294,2764L2546,2161L2538,2602Z" fill="#5c0c33" stroke="#5c0c33" stroke-width="1.51"/><path d="M2684,3156L3294,2764L2538,2602Z" fill="#530a32" stroke="#530a32" stroke-width="1.51"/><path d="M3462,1747L3361,1353L2546,2161Z" fill="#6a1334" stroke="#6a1334" stroke-width="1.51"/><path d="M2353,1270L1611,585L2050,1530Z" fill="#9b1d3b" stroke="#9b1d3b" stroke-width="1.51"/><path d="M3361,1353L2609,592L2353,1270Z" fill="#891939" stroke="#891939" stroke-width="1.51"/><path d="M1461,1425L307,986L1210,1794Z" fill="#b5253f" stroke="#b5253f" stroke-width="1.51"/><path d="M2609,592L1611,585L2353,1270Z" fill="#9f203b" stroke="#9f203b" stroke-width="1.51"/><path d="M1611,585L1319,598L1461,1425Z" fill="#b6263e" stroke="#b6263e" stroke-width="1.51"/><path d="M2684,3156L2945,3503L3294,2764Z" fill="#4b0e30" stroke="#4b0e30" stroke-width="1.51"/><path d="M1635,3725L2684,3156L2029,3049Z" fill="#5b1232" stroke="#5b1232" stroke-width="1.51"/><path d="M1210,1794L551,2620L1178,2894Z" fill="#951c3b" stroke="#951c3b" stroke-width="1.51"/><path d="M1178,2894L904,3427L1273,3053Z" fill="#801a38" stroke="#801a38" stroke-width="1.51"/><path d="M425,2018L551,2620L1210,1794Z" fill="#a2213b" stroke="#a2213b" stroke-width="1.51"/><path d="M307,986L425,2018L1210,1794Z" fill="#b5273e" stroke="#b5273e" stroke-width="1.51"/><path d="M1273,3053L1635,3725L2029,3049Z" fill="#6a1535" stroke="#6a1535" stroke-width="1.51"/><path d="M1189,3640L1635,3725L1273,3053Z" fill="#701a35" stroke="#701a35" stroke-width="1.51"/><path d="M551,2620L904,3427L1178,2894Z" fill="#8a1c3a" stroke="#8a1c3a" stroke-width="1.51"/><path d="M904,3427L1189,3640L1273,3053Z" fill="#7b1d37" stroke="#7b1d37" stroke-width="1.51"/><path d="M3361,1353L3515,595L2609,592Z" fill="#871e39" stroke="#871e39" stroke-width="1.51"/><path d="M3462,1747L3938,1329L3361,1353Z" fill="#6a1a35" stroke="#6a1a35" stroke-width="1.51"/><path d="M4067,1668L3938,1329L3462,1747Z" fill="#621a33" stroke="#621a33" stroke-width="1.51"/><path d="M4098,2801L4067,1668L3462,1747Z" fill="#521531" stroke="#521531" stroke-width="1.51"/><path d="M4098,2801L3462,1747L3294,2764Z" fill="#4d1231" stroke="#4d1231" stroke-width="1.51"/><path d="M3938,1329L3515,595L3361,1353Z" fill="#781f37" stroke="#781f37" stroke-width="1.51"/><path d="M2609,592L2160,-47L1611,585Z" fill="#a9263c" stroke="#a9263c" stroke-width="1.51"/><path d="M2945,3503L3734,3268L3294,2764Z" fill="#44102f" stroke="#44102f" stroke-width="1.51"/><path d="M1635,3725L2882,3945L2684,3156Z" fill="#4f1231" stroke="#4f1231" stroke-width="1.51"/><path d="M2945,3503L3073,4021L3734,3268Z" fill="#3d122e" stroke="#3d122e" stroke-width="1.51"/><path d="M551,2620L204,2847L904,3427Z" fill="#90203a" stroke="#90203a" stroke-width="1.51"/><path d="M425,2018L204,2847L551,2620Z" fill="#9f233b" stroke="#9f233b" stroke-width="1.51"/><path d="M2856,-221L2160,-47L2609,592Z" fill="#a3273b" stroke="#a3273b" stroke-width="1.51"/><path d="M1611,585L1020,13L1319,598Z" fill="#c52f3f" stroke="#c52f3f" stroke-width="1.51"/><path d="M425,2018L-595,2259L204,2847Z" fill="#aa293b" stroke="#aa293b" stroke-width="1.51"/><path d="M1319,598L307,986L1461,1425Z" fill="#c32b40" stroke="#c32b40" stroke-width="1.51"/><path d="M311,443L307,986L1319,598Z" fill="#d33441" stroke="#d33441" stroke-width="1.51"/><path d="M3734,3268L4098,2801L3294,2764Z" fill="#41102f" stroke="#41102f" stroke-width="1.51"/><path d="M2882,3945L3073,4021L2945,3503Z" fill="#3e122e" stroke="#3e122e" stroke-width="1.51"/><path d="M3094,4662L3073,4021L2882,3945Z" fill="#3d122e" stroke="#3d122e" stroke-width="1.51"/><path d="M2347,4430L2882,3945L1635,3725Z" fill="#4e1431" stroke="#4e1431" stroke-width="1.51"/><path d="M4548,2139L4217,1229L4067,1668Z" fill="#5e1933" stroke="#5e1933" stroke-width="1.51"/><path d="M4067,1668L4217,1229L3938,1329Z" fill="#681c34" stroke="#681c34" stroke-width="1.51"/><path d="M3938,1329L4144,563L3515,595Z" fill="#7a2337" stroke="#7a2337" stroke-width="1.51"/><path d="M1346,-457L1020,13L1611,585Z" fill="#cb333f" stroke="#cb333f" stroke-width="1.51"/><path d="M4098,2801L4548,2139L4067,1668Z" fill="#4f1531" stroke="#4f1531" stroke-width="1.51"/><path d="M4254,3577L4325,2821L4098,2801Z" fill="#3c122e" stroke="#3c122e" stroke-width="1.51"/><path d="M4254,3577L4098,2801L3734,3268Z" fill="#39132e" stroke="#39132e" stroke-width="1.51"/><path d="M1997,4673L2347,4430L1635,3725Z" fill="#541631" stroke="#541631" stroke-width="1.51"/><path d="M904,3427L566,3800L1189,3640Z" fill="#7d2138" stroke="#7d2138" stroke-width="1.51"/><path d="M204,2847L566,3800L904,3427Z" fill="#882339" stroke="#882339" stroke-width="1.51"/><path d="M4144,563L3496,100L3515,595Z" fill="#842738" stroke="#842738" stroke-width="1.51"/><path d="M3515,595L3496,100L2609,592Z" fill="#8e2439" stroke="#8e2439" stroke-width="1.51"/><path d="M2160,-47L1346,-457L1611,585Z" fill="#bd2e3d" stroke="#bd2e3d" stroke-width="1.51"/><path d="M3496,100L2856,-221L2609,592Z" fill="#98253a" stroke="#98253a" stroke-width="1.51"/><path d="M1105,4306L1635,3725L1189,3640Z" fill="#6c1e35" stroke="#6c1e35" stroke-width="1.51"/><path d="M1020,13L311,443L1319,598Z" fill="#d53541" stroke="#d53541" stroke-width="1.51"/><path d="M307,986L-360,1684L425,2018Z" fill="#c12f3d" stroke="#c12f3d" stroke-width="1.51"/><path d="M4325,2821L4548,2139L4098,2801Z" fill="#46132f" stroke="#46132f" stroke-width="1.51"/><path d="M311,443L-90,1007L307,986Z" fill="#da3941" stroke="#da3941" stroke-width="1.51"/><path d="M4254,3577L4013,3613L3998,4557Z" fill="#2d142c" stroke="#2d142c" stroke-width="1.51"/><path d="M3073,4021L4013,3613L3734,3268Z" fill="#36132d" stroke="#36132d" stroke-width="1.51"/><path d="M566,3800L1105,4306L1189,3640Z" fill="#782237" stroke="#782237" stroke-width="1.51"/><path d="M4168,145L4768,430L4436,8Z" fill="#862a37" stroke="#862a37" stroke-width="1.51"/><path d="M4217,1229L4144,563L3938,1329Z" fill="#752136" stroke="#752136" stroke-width="1.51"/><path d="M-90,1007L-360,1684L307,986Z" fill="#d0353f" stroke="#d0353f" stroke-width="1.51"/><path d="M204,2847L-189,3169L566,3800Z" fill="#912639" stroke="#912639" stroke-width="1.51"/><path d="M-360,1684L-428,1885L425,2018Z" fill="#b82c3c" stroke="#b82c3c" stroke-width="1.51"/><path d="M2856,-221L2895,-411L2160,-47Z" fill="#a3273b" stroke="#a3273b" stroke-width="1.51"/><path d="M3343,-462L2895,-411L2856,-221Z" fill="#9a273a" stroke="#9a273a" stroke-width="1.51"/><path d="M3343,-462L2856,-221L3496,100Z" fill="#962939" stroke="#962939" stroke-width="1.51"/><path d="M-574,3043L-189,3169L204,2847Z" fill="#9a273a" stroke="#9a273a" stroke-width="1.51"/><path d="M566,3800L370,4670L1105,4306Z" fill="#7d2537" stroke="#7d2537" stroke-width="1.51"/><path d="M1606,-548L1346,-457L2160,-47Z" fill="#be2e3d" stroke="#be2e3d" stroke-width="1.51"/><path d="M1020,13L318,-262L311,443Z" fill="#e13d41" stroke="#e13d41" stroke-width="1.51"/><path d="M4013,3613L4254,3577L3734,3268Z" fill="#34132d" stroke="#34132d" stroke-width="1.51"/><path d="M4325,2821L4771,3332L4548,2139Z" fill="#42122f" stroke="#42122f" stroke-width="1.51"/><path d="M3998,4557L4013,3613L3073,4021Z" fill="#30142c" stroke="#30142c" stroke-width="1.51"/><path d="M2347,4430L3094,4662L2882,3945Z" fill="#42122f" stroke="#42122f" stroke-width="1.51"/><path d="M1105,4306L1997,4673L1635,3725Z" fill="#621a33" stroke="#621a33" stroke-width="1.51"/><path d="M2895,-411L1606,-548L2160,-47Z" fill="#ae2a3b" stroke="#ae2a3b" stroke-width="1.51"/><path d="M-465,964L-428,1885L-360,1684Z" fill="#c5313e" stroke="#c5313e" stroke-width="1.51"/><path d="M-465,964L-595,2259L-428,1885Z" fill="#be2f3d" stroke="#be2f3d" stroke-width="1.51"/><path d="M-428,1885L-595,2259L425,2018Z" fill="#b22b3b" stroke="#b22b3b" stroke-width="1.51"/><path d="M1606,-548L859,-385L1346,-457Z" fill="#cf353f" stroke="#cf353f" stroke-width="1.51"/><path d="M1346,-457L859,-385L1020,13Z" fill="#d63740" stroke="#d63740" stroke-width="1.51"/><path d="M311,443L-134,447L-90,1007Z" fill="#e03d41" stroke="#e03d41" stroke-width="1.51"/><path d="M-90,1007L-465,964L-360,1684Z" fill="#d0353f" stroke="#d0353f" stroke-width="1.51"/><path d="M-45,282L-134,447L311,443Z" fill="#e54041" stroke="#e54041" stroke-width="1.51"/><path d="M2895,-411L3577,-988L1606,-548Z" fill="#a2273b" stroke="#a2273b" stroke-width="1.51"/><path d="M4168,145L3343,-462L3496,100Z" fill="#8d2b38" stroke="#8d2b38" stroke-width="1.51"/><path d="M4144,563L4168,145L3496,100Z" fill="#852937" stroke="#852937" stroke-width="1.51"/><path d="M4168,145L4144,563L4768,430Z" fill="#822837" stroke="#822837" stroke-width="1.51"/><path d="M1997,4673L3094,4662L2347,4430Z" fill="#491330" stroke="#491330" stroke-width="1.51"/><path d="M318,-262L-45,282L311,443Z" fill="#e74040" stroke="#e74040" stroke-width="1.51"/><path d="M-134,447L-465,964L-90,1007Z" fill="#dd3b41" stroke="#dd3b41" stroke-width="1.51"/><path d="M-651,393L-465,964L-134,447Z" fill="#e13e41" stroke="#e13e41" stroke-width="1.51"/><path d="M-595,2259L-574,3043L204,2847Z" fill="#a1273b" stroke="#a1273b" stroke-width="1.51"/><path d="M-189,3169L-347,3867L566,3800Z" fill="#8e2b38" stroke="#8e2b38" stroke-width="1.51"/><path d="M859,-385L318,-262L1020,13Z" fill="#df3c41" stroke="#df3c41" stroke-width="1.51"/><path d="M4254,3577L4771,3332L4325,2821Z" fill="#39132e" stroke="#39132e" stroke-width="1.51"/><path d="M4508,4782L4771,3332L4254,3577Z" fill="#2d142c" stroke="#2d142c" stroke-width="1.51"/><path d="M-633,3770L-347,3867L-189,3169Z" fill="#8e2b38" stroke="#8e2b38" stroke-width="1.51"/><path d="M1105,4306L370,4670L1997,4673Z" fill="#711f36" stroke="#711f36" stroke-width="1.51"/><path d="M4292,-699L3577,-988L3343,-462Z" fill="#8c2c38" stroke="#8c2c38" stroke-width="1.51"/><path d="M4768,430L4144,563L4217,1229Z" fill="#7c2437" stroke="#7c2437" stroke-width="1.51"/><path d="M4768,430L4217,1229L4548,2139Z" fill="#6d1e35" stroke="#6d1e35" stroke-width="1.51"/><path d="M4771,3332L4768,430L4548,2139Z" fill="#551631" stroke="#551631" stroke-width="1.51"/><path d="M3094,4662L3998,4557L3073,4021Z" fill="#36132d" stroke="#36132d" stroke-width="1.51"/><path d="M-96,4562L370,4670L566,3800Z" fill="#852937" stroke="#852937" stroke-width="1.51"/><path d="M-465,964L-651,393L-595,2259Z" fill="#d1353f" stroke="#d1353f" stroke-width="1.51"/><path d="M-595,2259L-633,3770L-574,3043Z" fill="#9a273a" stroke="#9a273a" stroke-width="1.51"/><path d="M-45,282L-651,393L-134,447Z" fill="#e64041" stroke="#e64041" stroke-width="1.51"/><path d="M-246,-441L-651,393L-45,282Z" fill="#ec4440" stroke="#ec4440" stroke-width="1.51"/><path d="M-347,3867L-96,4562L566,3800Z" fill="#892c37" stroke="#892c37" stroke-width="1.51"/><path d="M-574,3043L-633,3770L-189,3169Z" fill="#942939" stroke="#942939" stroke-width="1.51"/><path d="M-919,-219L-633,3770L-595,2259Z" fill="#b52c3c" stroke="#b52c3c" stroke-width="1.51"/><path d="M3343,-462L3577,-988L2895,-411Z" fill="#95293a" stroke="#95293a" stroke-width="1.51"/><path d="M-922,-929L-246,-441L859,-385Z" fill="#ee4540" stroke="#ee4540" stroke-width="1.51"/><path d="M4292,-699L3343,-462L4168,145Z" fill="#8a2c37" stroke="#8a2c37" stroke-width="1.51"/><path d="M-477,4345L-96,4562L-347,3867Z" fill="#8a2c37" stroke="#8a2c37" stroke-width="1.51"/><path d="M318,-262L-246,-441L-45,282Z" fill="#ee4540" stroke="#ee4540" stroke-width="1.51"/><path d="M859,-385L-246,-441L318,-262Z" fill="#e74141" stroke="#e74141" stroke-width="1.51"/><path d="M-922,-929L859,-385L1606,-548Z" fill="#e33f41" stroke="#e33f41" stroke-width="1.51"/><path d="M-633,3770L-477,4345L-347,3867Z" fill="#8a2c37" stroke="#8a2c37" stroke-width="1.51"/><path d="M4436,8L4292,-699L4168,145Z" fill="#8a2c37" stroke="#8a2c37" stroke-width="1.51"/><path d="M4768,430L4292,-699L4436,8Z" fill="#8a2c37" stroke="#8a2c37" stroke-width="1.51"/><path d="M3998,4557L4508,4782L4254,3577Z" fill="#2d142c" stroke="#2d142c" stroke-width="1.51"/><path d="M3094,4662L4508,4782L3998,4557Z" fill="#2d142c" stroke="#2d142c" stroke-width="1.51"/><path d="M1997,4673L4508,4782L3094,4662Z" fill="#39122e" stroke="#39122e" stroke-width="1.51"/><path d="M370,4670L4508,4782L1997,4673Z" fill="#4e1431" stroke="#4e1431" stroke-width="1.51"/><path d="M-651,393L-919,-219L-595,2259Z" fill="#dd3b41" stroke="#dd3b41" stroke-width="1.51"/><path d="M-246,-441L-919,-219L-651,393Z" fill="#ee4540" stroke="#ee4540" stroke-width="1.51"/><path d="M-246,-441L-922,-929L-919,-219Z" fill="#ee4540" stroke="#ee4540" stroke-width="1.51"/><path d="M3577,-988L-922,-929L1606,-548Z" fill="#c8333e" stroke="#c8333e" stroke-width="1.51"/></svg>