<svg xmlns="http://www.w3.org/2000/svg" width="800" height="1200"><path d="M442,640L468,552L342,573Z" fill="#7f1336" stroke="#7f1336" stroke-width="1.51"/><path d="M342,573L325,694L442,640Z" fill="#821437" stroke="#821437" stroke-width="1.51"/><path d="M325,694L369,750L442,640Z" fill="#7c1336" stroke="#7c1336" stroke-width="1.51"/><path d="M468,552L302,423L342,573Z" fill="#8e1839" stroke="#8e1839" stroke-width="1.51"/><path d="M482,425L302,423L468,552Z" fill="#8d1839" stroke="#8d1839" stroke-width="1.51"/><path d="M342,573L200,692L325,694Z" fill="#8f1939" stroke="#8f1939" stroke-width="1.51"/><path d="M610,672L620,571L468,552Z" fill="#6c0f35" stroke="#6c0f35" stroke-width="1.51"/><path d="M468,552L620,571L482,425Z" fill="#7b1337" stroke="#7b1337" stroke-width="1.51"/><path d="M610,672L468,552L442,640Z" fill="#721035" stroke="#721035" stroke-width="1.51"/><path d="M493,811L610,672L442,640Z" fill="#6a0f35" stroke="#6a0f35" stroke-width="1.51"/><path d="M302,423L184,529L342,573Z" fill="#a01e3b" stroke="#a01e3b" stroke-width="1.51"/><path d="M325,694L236,819L369,750Z" fill="#831638" stroke="#831638" stroke-width="1.51"/><path d="M184,529L200,692L342,573Z" fill="#9c1d3b" stroke="#9c1d3b" stroke-width="1.51"/><path d="M369,750L493,811L442,640Z" fill="#711035" stroke="#711035" stroke-width="1.51"/><path d="M453,871L493,811L369,750Z" fill="#6b0f34" stroke="#6b0f34" stroke-width="1.51"/><path d="M482,425L344,333L302,423Z" fill="#9c1d3b" stroke="#9c1d3b" stroke-width="1.51"/><path d="M302,423L200,391L184,529Z" fill="#b0243e" stroke="#b0243e" stroke-width="1.51"/><path d="M620,571L597,384L482,425Z" fill="#7c1437" stroke="#7c1437" stroke-width="1.51"/><path d="M482,425L462,260L344,333Z" fill="#9a1d3b" stroke="#9a1d3b" stroke-width="1.51"/><path d="M184,529L135,615L200,692Z" fill="#a4213c" stroke="#a4213c" stroke-width="1.51"/><path d="M610,672L675,652L620,571Z" fill="#631034" stroke="#631034" stroke-width="1.51"/><path d="M620,571L698,507L597,384Z" fill="#711536" stroke="#711536" stroke-width="1.51"/><path d="M738,821L675,652L610,672Z" fill="#591033" stroke="#591033" stroke-width="1.51"/><path d="M493,811L571,809L610,672Z" fill="#600d34" stroke="#600d34" stroke-width="1.51"/><path d="M344,333L200,391L302,423Z" fill="#ae233e" stroke="#ae233e" stroke-width="1.51"/><path d="M184,529L63,558L135,615Z" fill="#ad253c" stroke="#ad253c" stroke-width="1.51"/><path d="M493,811L578,919L571,809Z" fill="#5b0b33" stroke="#5b0b33" stroke-width="1.51"/><path d="M338,886L453,871L369,750Z" fill="#701035" stroke="#701035" stroke-width="1.51"/><path d="M200,692L236,819L325,694Z" fill="#8e1a39" stroke="#8e1a39" stroke-width="1.51"/><path d="M136,778L236,819L200,692Z" fill="#961d3b" stroke="#961d3b" stroke-width="1.51"/><path d="M675,652L698,507L620,571Z" fill="#651234" stroke="#651234" stroke-width="1.51"/><path d="M236,819L338,886L369,750Z" fill="#7e1537" stroke="#7e1537" stroke-width="1.51"/><path d="M597,384L462,260L482,425Z" fill="#8e1a3a" stroke="#8e1a3a" stroke-width="1.51"/><path d="M344,333L215,278L200,391Z" fill="#b9273f" stroke="#b9273f" stroke-width="1.51"/><path d="M597,384L622,332L462,260Z" fill="#8c1a3a" stroke="#8c1a3a" stroke-width="1.51"/><path d="M691,391L622,332L597,384Z" fill="#7f1938" stroke="#7f1938" stroke-width="1.51"/><path d="M236,819L203,918L338,886Z" fill="#821738" stroke="#821738" stroke-width="1.51"/><path d="M135,615L136,778L200,692Z" fill="#9f213b" stroke="#9f213b" stroke-width="1.51"/><path d="M698,507L691,391L597,384Z" fill="#761836" stroke="#761836" stroke-width="1.51"/><path d="M71,383L63,558L184,529Z" fill="#b92a3e" stroke="#b92a3e" stroke-width="1.51"/><path d="M135,615L12,662L136,778Z" fill="#a6243c" stroke="#a6243c" stroke-width="1.51"/><path d="M200,391L71,383L184,529Z" fill="#bb293f" stroke="#bb293f" stroke-width="1.51"/><path d="M235,200L215,278L344,333Z" fill="#bd2940" stroke="#bd2940" stroke-width="1.51"/><path d="M795,741L798,670L675,652Z" fill="#531431" stroke="#531431" stroke-width="1.51"/><path d="M453,871L578,919L493,811Z" fill="#5e0c33" stroke="#5e0c33" stroke-width="1.51"/><path d="M485,1028L578,919L453,871Z" fill="#590e33" stroke="#590e33" stroke-width="1.51"/><path d="M462,260L429,204L344,333Z" fill="#a3203c" stroke="#a3203c" stroke-width="1.51"/><path d="M587,223L429,204L462,260Z" fill="#9c203b" stroke="#9c203b" stroke-width="1.51"/><path d="M215,278L71,383L200,391Z" fill="#c42d40" stroke="#c42d40" stroke-width="1.51"/><path d="M136,778L203,918L236,819Z" fill="#911c3a" stroke="#911c3a" stroke-width="1.51"/><path d="M338,886L485,1028L453,871Z" fill="#640f34" stroke="#640f34" stroke-width="1.51"/><path d="M675,652L825,539L698,507Z" fill="#601533" stroke="#601533" stroke-width="1.51"/><path d="M698,507L849,433L691,391Z" fill="#6c1b35" stroke="#6c1b35" stroke-width="1.51"/><path d="M738,821L610,672L571,809Z" fill="#580e33" stroke="#580e33" stroke-width="1.51"/><path d="M687,284L587,223L622,332Z" fill="#891c3a" stroke="#891c3a" stroke-width="1.51"/><path d="M622,332L587,223L462,260Z" fill="#921c3b" stroke="#921c3b" stroke-width="1.51"/><path d="M63,558L12,662L135,615Z" fill="#ae273c" stroke="#ae273c" stroke-width="1.51"/><path d="M136,778L59,911L203,918Z" fill="#931f3a" stroke="#931f3a" stroke-width="1.51"/><path d="M6,517L12,662L63,558Z" fill="#b62b3c" stroke="#b62b3c" stroke-width="1.51"/><path d="M668,944L738,821L571,809Z" fill="#4f0d31" stroke="#4f0d31" stroke-width="1.51"/><path d="M71,383L6,517L63,558Z" fill="#bf2d3d" stroke="#bf2d3d" stroke-width="1.51"/><path d="M691,391L687,284L622,332Z" fill="#801b38" stroke="#801b38" stroke-width="1.51"/><path d="M832,302L687,284L691,391Z" fill="#7b1f37" stroke="#7b1f37" stroke-width="1.51"/><path d="M738,821L795,741L675,652Z" fill="#511331" stroke="#511331" stroke-width="1.51"/><path d="M914,435L825,539L969,581Z" fill="#5f1a33" stroke="#5f1a33" stroke-width="1.51"/><path d="M798,670L825,539L675,652Z" fill="#581532" stroke="#581532" stroke-width="1.51"/><path d="M380,145L235,200L344,333Z" fill="#b6273e" stroke="#b6273e" stroke-width="1.51"/><path d="M215,278L62,277L71,383Z" fill="#cd3141" stroke="#cd3141" stroke-width="1.51"/><path d="M384,47L380,145L442,29Z" fill="#b1293c" stroke="#b1293c" stroke-width="1.51"/><path d="M429,204L380,145L344,333Z" fill="#aa233c" stroke="#aa233c" stroke-width="1.51"/><path d="M62,277L4,398L71,383Z" fill="#cf3340" stroke="#cf3340" stroke-width="1.51"/><path d="M71,383L4,398L6,517Z" fill="#c8323e" stroke="#c8323e" stroke-width="1.51"/><path d="M738,821L853,869L795,741Z" fill="#47132f" stroke="#47132f" stroke-width="1.51"/><path d="M578,919L668,944L571,809Z" fill="#510b32" stroke="#510b32" stroke-width="1.51"/><path d="M577,1003L668,944L578,919Z" fill="#4d0c31" stroke="#4d0c31" stroke-width="1.51"/><path d="M330,1031L485,1028L338,886Z" fill="#661234" stroke="#661234" stroke-width="1.51"/><path d="M485,1028L577,1003L578,919Z" fill="#520e32" stroke="#520e32" stroke-width="1.51"/><path d="M203,918L330,1031L338,886Z" fill="#781737" stroke="#781737" stroke-width="1.51"/><path d="M109,163L62,277L215,278Z" fill="#d23341" stroke="#d23341" stroke-width="1.51"/><path d="M825,539L849,433L698,507Z" fill="#631a33" stroke="#631a33" stroke-width="1.51"/><path d="M914,435L849,433L825,539Z" fill="#651b34" stroke="#651b34" stroke-width="1.51"/><path d="M687,284L694,213L587,223Z" fill="#891f39" stroke="#891f39" stroke-width="1.51"/><path d="M442,29L380,145L429,204Z" fill="#ac263c" stroke="#ac263c" stroke-width="1.51"/><path d="M777,191L694,213L687,284Z" fill="#842238" stroke="#842238" stroke-width="1.51"/><path d="M203,918L177,1012L330,1031Z" fill="#7f1b38" stroke="#7f1b38" stroke-width="1.51"/><path d="M-63,801L59,911L136,778Z" fill="#9e253b" stroke="#9e253b" stroke-width="1.51"/><path d="M140,996L177,1012L203,918Z" fill="#881e39" stroke="#881e39" stroke-width="1.51"/><path d="M59,911L140,996L203,918Z" fill="#8e1f3a" stroke="#8e1f3a" stroke-width="1.51"/><path d="M849,433L832,302L691,391Z" fill="#701f35" stroke="#701f35" stroke-width="1.51"/><path d="M62,277L8,258L4,398Z" fill="#d63741" stroke="#d63741" stroke-width="1.51"/><path d="M235,200L109,163L215,278Z" fill="#ce3141" stroke="#ce3141" stroke-width="1.51"/><path d="M259,29L109,163L235,200Z" fill="#d23341" stroke="#d23341" stroke-width="1.51"/><path d="M109,163L8,258L62,277Z" fill="#d93841" stroke="#d93841" stroke-width="1.51"/><path d="M12,662L-63,801L136,778Z" fill="#a7273b" stroke="#a7273b" stroke-width="1.51"/><path d="M59,911L-50,1026L140,996Z" fill="#932539" stroke="#932539" stroke-width="1.51"/><path d="M-168,666L-63,801L12,662Z" fill="#ad2a3b" stroke="#ad2a3b" stroke-width="1.51"/><path d="M-153,524L12,662L6,517Z" fill="#b92d3c" stroke="#b92d3c" stroke-width="1.51"/><path d="M-153,524L6,517L-174,463Z" fill="#c2303e" stroke="#c2303e" stroke-width="1.51"/><path d="M668,944L853,869L738,821Z" fill="#45102f" stroke="#45102f" stroke-width="1.51"/><path d="M577,1003L707,1010L668,944Z" fill="#480f30" stroke="#480f30" stroke-width="1.51"/><path d="M611,1144L707,1010L577,1003Z" fill="#450f30" stroke="#450f30" stroke-width="1.51"/><path d="M849,433L914,435L832,302Z" fill="#6d1e35" stroke="#6d1e35" stroke-width="1.51"/><path d="M949,619L825,539L798,670Z" fill="#561631" stroke="#561631" stroke-width="1.51"/><path d="M949,619L798,670L795,741Z" fill="#501531" stroke="#501531" stroke-width="1.51"/><path d="M707,1010L853,869L668,944Z" fill="#42112f" stroke="#42112f" stroke-width="1.51"/><path d="M380,145L259,29L235,200Z" fill="#c22e3f" stroke="#c22e3f" stroke-width="1.51"/><path d="M442,29L429,204L623,66Z" fill="#a3253b" stroke="#a3253b" stroke-width="1.51"/><path d="M623,66L429,204L587,223Z" fill="#99213b" stroke="#99213b" stroke-width="1.51"/><path d="M832,302L777,191L687,284Z" fill="#7d2238" stroke="#7d2238" stroke-width="1.51"/><path d="M918,215L777,191L832,302Z" fill="#7b2437" stroke="#7b2437" stroke-width="1.51"/><path d="M485,1028L473,1119L577,1003Z" fill="#521032" stroke="#521032" stroke-width="1.51"/><path d="M330,1031L473,1119L485,1028Z" fill="#5b1332" stroke="#5b1332" stroke-width="1.51"/><path d="M323,1127L473,1119L330,1031Z" fill="#611533" stroke="#611533" stroke-width="1.51"/><path d="M940,809L949,619L795,741Z" fill="#4d1430" stroke="#4d1430" stroke-width="1.51"/><path d="M-63,801L-51,874L59,911Z" fill="#a0273b" stroke="#a0273b" stroke-width="1.51"/><path d="M227,1169L177,1012L78,1151Z" fill="#812238" stroke="#812238" stroke-width="1.51"/><path d="M227,1169L323,1127L177,1012Z" fill="#771d37" stroke="#771d37" stroke-width="1.51"/><path d="M177,1012L323,1127L330,1031Z" fill="#731a36" stroke="#731a36" stroke-width="1.51"/><path d="M623,66L587,223L694,213Z" fill="#8f213a" stroke="#8f213a" stroke-width="1.51"/><path d="M731,45L623,66L694,213Z" fill="#8e2539" stroke="#8e2539" stroke-width="1.51"/><path d="M940,809L969,581L949,619Z" fill="#511531" stroke="#511531" stroke-width="1.51"/><path d="M949,619L969,581L825,539Z" fill="#591732" stroke="#591732" stroke-width="1.51"/><path d="M-174,463L6,517L4,398Z" fill="#c7323e" stroke="#c7323e" stroke-width="1.51"/><path d="M-63,801L-151,812L-51,874Z" fill="#a3273b" stroke="#a3273b" stroke-width="1.51"/><path d="M384,47L259,29L380,145Z" fill="#bb2c3d" stroke="#bb2c3d" stroke-width="1.51"/><path d="M373,-27L259,29L384,47Z" fill="#c02f3e" stroke="#c02f3e" stroke-width="1.51"/><path d="M853,869L940,809L795,741Z" fill="#47132f" stroke="#47132f" stroke-width="1.51"/><path d="M952,1029L916,857L853,869Z" fill="#3e112f" stroke="#3e112f" stroke-width="1.51"/><path d="M916,857L940,809L853,869Z" fill="#44122f" stroke="#44122f" stroke-width="1.51"/><path d="M-153,524L-168,666L12,662Z" fill="#b42b3c" stroke="#b42b3c" stroke-width="1.51"/><path d="M-144,310L-174,463L4,398Z" fill="#cf353f" stroke="#cf353f" stroke-width="1.51"/><path d="M109,163L-8,171L8,258Z" fill="#dd3b41" stroke="#dd3b41" stroke-width="1.51"/><path d="M77,93L-8,171L109,163Z" fill="#de3c41" stroke="#de3c41" stroke-width="1.51"/><path d="M259,29L77,93L109,163Z" fill="#d93841" stroke="#d93841" stroke-width="1.51"/><path d="M-153,524L-174,463L-168,666Z" fill="#bb2e3d" stroke="#bb2e3d" stroke-width="1.51"/><path d="M-144,310L4,398L8,258Z" fill="#d83840" stroke="#d83840" stroke-width="1.51"/><path d="M473,1119L611,1144L577,1003Z" fill="#4b1030" stroke="#4b1030" stroke-width="1.51"/><path d="M707,1010L807,1038L853,869Z" fill="#3c122e" stroke="#3c122e" stroke-width="1.51"/><path d="M479,1238L611,1144L473,1119Z" fill="#4a1330" stroke="#4a1330" stroke-width="1.51"/><path d="M-168,666L-151,812L-63,801Z" fill="#a9293b" stroke="#a9293b" stroke-width="1.51"/><path d="M78,1151L177,1012L140,996Z" fill="#872239" stroke="#872239" stroke-width="1.51"/><path d="M693,1160L807,1038L707,1010Z" fill="#3b122e" stroke="#3b122e" stroke-width="1.51"/><path d="M777,191L731,45L694,213Z" fill="#872538" stroke="#872538" stroke-width="1.51"/><path d="M914,435L943,291L832,302Z" fill="#732036" stroke="#732036" stroke-width="1.51"/><path d="M969,581L943,291L914,435Z" fill="#681d34" stroke="#681d34" stroke-width="1.51"/><path d="M259,29L142,-18L77,93Z" fill="#dc3a41" stroke="#dc3a41" stroke-width="1.51"/><path d="M442,29L373,-27L384,47Z" fill="#b52b3c" stroke="#b52b3c" stroke-width="1.51"/><path d="M470,-70L373,-27L442,29Z" fill="#b22b3b" stroke="#b22b3b" stroke-width="1.51"/><path d="M323,1127L479,1238L473,1119Z" fill="#561532" stroke="#561532" stroke-width="1.51"/><path d="M-50,1026L59,911L-51,874Z" fill="#9b273a" stroke="#9b273a" stroke-width="1.51"/><path d="M-160,186L-144,310L8,258Z" fill="#dd3b41" stroke="#dd3b41" stroke-width="1.51"/><path d="M810,89L731,45L777,191Z" fill="#862738" stroke="#862738" stroke-width="1.51"/><path d="M623,66L535,-37L442,29Z" fill="#a3273b" stroke="#a3273b" stroke-width="1.51"/><path d="M943,291L918,215L832,302Z" fill="#7a2337" stroke="#7a2337" stroke-width="1.51"/><path d="M728,-51L535,-37L623,66Z" fill="#9a273a" stroke="#9a273a" stroke-width="1.51"/><path d="M918,215L810,89L777,191Z" fill="#802637" stroke="#802637" stroke-width="1.51"/><path d="M-157,911L-50,1026L-51,874Z" fill="#9b273a" stroke="#9b273a" stroke-width="1.51"/><path d="M611,1144L693,1160L707,1010Z" fill="#3f122f" stroke="#3f122f" stroke-width="1.51"/><path d="M698,1229L693,1160L611,1144Z" fill="#3b122e" stroke="#3b122e" stroke-width="1.51"/><path d="M-168,666L-157,911L-151,812Z" fill="#a5283b" stroke="#a5283b" stroke-width="1.51"/><path d="M-151,812L-157,911L-51,874Z" fill="#9f273b" stroke="#9f273b" stroke-width="1.51"/><path d="M373,-27L227,-47L259,29Z" fill="#cb333e" stroke="#cb333e" stroke-width="1.51"/><path d="M-61,28L-160,186L-8,171Z" fill="#e54041" stroke="#e54041" stroke-width="1.51"/><path d="M364,-213L227,-47L373,-27Z" fill="#c4313d" stroke="#c4313d" stroke-width="1.51"/><path d="M535,-37L470,-70L442,29Z" fill="#ab293b" stroke="#ab293b" stroke-width="1.51"/><path d="M482,-137L470,-70L535,-37Z" fill="#aa293b" stroke="#aa293b" stroke-width="1.51"/><path d="M227,-47L142,-18L259,29Z" fill="#d93841" stroke="#d93841" stroke-width="1.51"/><path d="M-8,171L-160,186L8,258Z" fill="#e03d41" stroke="#e03d41" stroke-width="1.51"/><path d="M-50,1026L78,1151L140,996Z" fill="#8e2639" stroke="#8e2639" stroke-width="1.51"/><path d="M319,1274L323,1127L227,1169Z" fill="#691d34" stroke="#691d34" stroke-width="1.51"/><path d="M319,1274L479,1238L323,1127Z" fill="#5b1832" stroke="#5b1832" stroke-width="1.51"/><path d="M807,1038L952,1029L853,869Z" fill="#3b122e" stroke="#3b122e" stroke-width="1.51"/><path d="M916,857L952,1029L940,809Z" fill="#3f112f" stroke="#3f112f" stroke-width="1.51"/><path d="M693,1160L836,1118L807,1038Z" fill="#35142d" stroke="#35142d" stroke-width="1.51"/><path d="M698,1229L836,1118L693,1160Z" fill="#35142d" stroke="#35142d" stroke-width="1.51"/><path d="M-61,28L-8,171L77,93Z" fill="#e74141" stroke="#e74141" stroke-width="1.51"/><path d="M-144,310L-160,186L-174,463Z" fill="#d83840" stroke="#d83840" stroke-width="1.51"/><path d="M-157,911L-134,1018L-50,1026Z" fill="#972839" stroke="#972839" stroke-width="1.51"/><path d="M-50,1026L-31,1134L78,1151Z" fill="#902b38" stroke="#902b38" stroke-width="1.51"/><path d="M188,1282L319,1274L227,1169Z" fill="#701f36" stroke="#701f36" stroke-width="1.51"/><path d="M836,1118L952,1029L807,1038Z" fill="#36132d" stroke="#36132d" stroke-width="1.51"/><path d="M940,809L952,1029L969,581Z" fill="#47132f" stroke="#47132f" stroke-width="1.51"/><path d="M78,1151L188,1282L227,1169Z" fill="#7b2437" stroke="#7b2437" stroke-width="1.51"/><path d="M-163,1097L-31,1134L-50,1026Z" fill="#912a38" stroke="#912a38" stroke-width="1.51"/><path d="M564,1300L698,1229L611,1144Z" fill="#3d122e" stroke="#3d122e" stroke-width="1.51"/><path d="M836,1118L933,1159L952,1029Z" fill="#33132d" stroke="#33132d" stroke-width="1.51"/><path d="M564,1300L611,1144L479,1238Z" fill="#45122f" stroke="#45122f" stroke-width="1.51"/><path d="M731,45L728,-51L623,66Z" fill="#922839" stroke="#922839" stroke-width="1.51"/><path d="M780,-67L728,-51L731,45Z" fill="#8f2b38" stroke="#8f2b38" stroke-width="1.51"/><path d="M780,-67L731,45L810,89Z" fill="#8b2b38" stroke="#8b2b38" stroke-width="1.51"/><path d="M470,-70L482,-137L373,-27Z" fill="#b02b3b" stroke="#b02b3b" stroke-width="1.51"/><path d="M10,-44L77,93L142,-18Z" fill="#e64041" stroke="#e64041" stroke-width="1.51"/><path d="M592,-158L482,-137L535,-37Z" fill="#a5283b" stroke="#a5283b" stroke-width="1.51"/><path d="M10,-44L142,-18L126,-211Z" fill="#e54041" stroke="#e54041" stroke-width="1.51"/><path d="M10,-44L-61,28L77,93Z" fill="#eb4440" stroke="#eb4440" stroke-width="1.51"/><path d="M56,1226L188,1282L78,1151Z" fill="#802737" stroke="#802737" stroke-width="1.51"/><path d="M-31,1134L56,1226L78,1151Z" fill="#892a38" stroke="#892a38" stroke-width="1.51"/><path d="M497,1393L479,1238L319,1274Z" fill="#521531" stroke="#521531" stroke-width="1.51"/><path d="M497,1393L564,1300L479,1238Z" fill="#491330" stroke="#491330" stroke-width="1.51"/><path d="M126,-211L142,-18L227,-47Z" fill="#de3b41" stroke="#de3b41" stroke-width="1.51"/><path d="M728,-51L592,-158L535,-37Z" fill="#9b273a" stroke="#9b273a" stroke-width="1.51"/><path d="M952,19L780,-67L810,89Z" fill="#892c37" stroke="#892c37" stroke-width="1.51"/><path d="M717,-183L592,-158L728,-51Z" fill="#952939" stroke="#952939" stroke-width="1.51"/><path d="M-31,1134L-5,1284L56,1226Z" fill="#892c37" stroke="#892c37" stroke-width="1.51"/><path d="M-134,1018L-163,1097L-50,1026Z" fill="#942939" stroke="#942939" stroke-width="1.51"/><path d="M-157,911L-163,1097L-134,1018Z" fill="#962939" stroke="#962939" stroke-width="1.51"/><path d="M-168,666L-163,1097L-157,911Z" fill="#9d263a" stroke="#9d263a" stroke-width="1.51"/><path d="M-174,463L-163,1097L-168,666Z" fill="#aa293b" stroke="#aa293b" stroke-width="1.51"/><path d="M806,1294L836,1118L698,1229Z" fill="#2f142c" stroke="#2f142c" stroke-width="1.51"/><path d="M912,1225L933,1159L836,1118Z" fill="#2f142c" stroke="#2f142c" stroke-width="1.51"/><path d="M980,-32L952,19L943,291Z" fill="#842937" stroke="#842937" stroke-width="1.51"/><path d="M943,291L952,19L918,215Z" fill="#7f2637" stroke="#7f2637" stroke-width="1.51"/><path d="M918,215L952,19L810,89Z" fill="#832838" stroke="#832838" stroke-width="1.51"/><path d="M592,-158L364,-213L482,-137Z" fill="#ac293c" stroke="#ac293c" stroke-width="1.51"/><path d="M482,-137L364,-213L373,-27Z" fill="#b52c3c" stroke="#b52c3c" stroke-width="1.51"/><path d="M-179,-66L-181,43L-61,28Z" fill="#ee4540" stroke="#ee4540" stroke-width="1.51"/><path d="M-61,28L-181,43L-160,186Z" fill="#e84240" stroke="#e84240" stroke-width="1.51"/><path d="M-160,186L-181,43L-174,463Z" fill="#df3c41" stroke="#df3c41" stroke-width="1.51"/><path d="M-179,-66L-61,28L10,-44Z" fill="#ee4540" stroke="#ee4540" stroke-width="1.51"/><path d="M188,1282L240,1375L319,1274Z" fill="#6f1f35" stroke="#6f1f35" stroke-width="1.51"/><path d="M80,1408L240,1375L188,1282Z" fill="#7a2337" stroke="#7a2337" stroke-width="1.51"/><path d="M80,1408L188,1282L56,1226Z" fill="#802737" stroke="#802737" stroke-width="1.51"/><path d="M-104,1290L-5,1284L-31,1134Z" fill="#8a2c37" stroke="#8a2c37" stroke-width="1.51"/><path d="M586,1382L698,1229L564,1300Z" fill="#3e122f" stroke="#3e122f" stroke-width="1.51"/><path d="M723,1424L806,1294L698,1229Z" fill="#33142d" stroke="#33142d" stroke-width="1.51"/><path d="M319,1405L497,1393L319,1274Z" fill="#5a1832" stroke="#5a1832" stroke-width="1.51"/><path d="M806,1294L912,1225L836,1118Z" fill="#2d142c" stroke="#2d142c" stroke-width="1.51"/><path d="M497,1393L586,1382L564,1300Z" fill="#45122f" stroke="#45122f" stroke-width="1.51"/><path d="M364,-213L235,-222L227,-47Z" fill="#cd343f" stroke="#cd343f" stroke-width="1.51"/><path d="M592,-158L717,-183L364,-213Z" fill="#a2273b" stroke="#a2273b" stroke-width="1.51"/><path d="M780,-67L717,-183L728,-51Z" fill="#8f2b38" stroke="#8f2b38" stroke-width="1.51"/><path d="M825,-186L717,-183L780,-67Z" fill="#8c2c38" stroke="#8c2c38" stroke-width="1.51"/><path d="M240,1375L319,1405L319,1274Z" fill="#681c34" stroke="#681c34" stroke-width="1.51"/><path d="M80,1408L319,1405L240,1375Z" fill="#752136" stroke="#752136" stroke-width="1.51"/><path d="M952,19L980,-32L780,-67Z" fill="#8a2c37" stroke="#8a2c37" stroke-width="1.51"/><path d="M969,581L980,-32L943,291Z" fill="#792237" stroke="#792237" stroke-width="1.51"/><path d="M235,-222L126,-211L227,-47Z" fill="#db3941" stroke="#db3941" stroke-width="1.51"/><path d="M126,-211L-23,-173L10,-44Z" fill="#ea4340" stroke="#ea4340" stroke-width="1.51"/><path d="M-5,1284L80,1408L56,1226Z" fill="#862a37" stroke="#862a37" stroke-width="1.51"/><path d="M-163,1097L-104,1290L-31,1134Z" fill="#8b2c38" stroke="#8b2c38" stroke-width="1.51"/><path d="M980,-32L825,-186L780,-67Z" fill="#8a2c37" stroke="#8a2c37" stroke-width="1.51"/><path d="M717,-183L920,-219L364,-213Z" fill="#962839" stroke="#962839" stroke-width="1.51"/><path d="M364,-213L920,-219L235,-222Z" fill="#a9293b" stroke="#a9293b" stroke-width="1.51"/><path d="M-135,-174L-179,-66L10,-44Z" fill="#ee4540" stroke="#ee4540" stroke-width="1.51"/><path d="M-40,1350L80,1408L-5,1284Z" fill="#892c37" stroke="#892c37" stroke-width="1.51"/><path d="M-104,1290L-40,1350L-5,1284Z" fill="#8a2c37" stroke="#8a2c37" stroke-width="1.51"/><path d="M497,1393L723,1424L586,1382Z" fill="#3f112f" stroke="#3f112f" stroke-width="1.51"/><path d="M586,1382L723,1424L698,1229Z" fill="#39132e" stroke="#39132e" stroke-width="1.51"/><path d="M806,1294L983,1369L912,1225Z" fill="#2d142c" stroke="#2d142c" stroke-width="1.51"/><path d="M319,1405L723,1424L497,1393Z" fill="#491330" stroke="#491330" stroke-width="1.51"/><path d="M80,1408L723,1424L319,1405Z" fill="#5b1832" stroke="#5b1832" stroke-width="1.51"/><path d="M723,1424L822,1413L806,1294Z" fill="#2f142c" stroke="#2f142c" stroke-width="1.51"/><path d="M-23,-173L-135,-174L10,-44Z" fill="#ee4540" stroke="#ee4540" stroke-width="1.51"/><path d="M126,-211L-135,-174L-23,-173Z" fill="#ee4540" stroke="#ee4540" stroke-width="1.51"/><path d="M980,-32L920,-219L825,-186Z" fill="#8a2c37" stroke="#8a2c37" stroke-width="1.51"/><path d="M825,-186L920,-219L717,-183Z" fill="#8a2c37" stroke="#8a2c37" stroke-width="1.51"/><path d="M-104,1290L-105,1393L-40,1350Z" fill="#8a2c37" stroke="#8a2c37" stroke-width="1.51"/><path d="M-40,1350L-105,1393L80,1408Z" fill="#8a2c37" stroke="#8a2c37" stroke-width="1.51"/><path d="M-163,1097L-105,1393L-104,1290Z" fill="#8a2c37" stroke="#8a2c37" stroke-width="1.51"/><path d="M822,1413L983,1369L806,1294Z" fill="#2d142c" stroke="#2d142c" stroke-width="1.51"/><path d="M912,1225L983,1369L933,1159Z" fill="#2d142c" stroke="#2d142c" stroke-width="1.51"/><path d="M933,1159L983,1369L952,1029Z" fill="#2e142c" stroke="#2e142c" stroke-width="1.51"/><path d="M952,1029L983,1369L969,581Z" fill="#3a122e" stroke="#3a122e" stroke-width="1.51"/><path d="M969,581L983,1369L980,-32Z" fill="#531631" stroke="#531631" stroke-width="1.51"/></svg>