<svg xmlns="http://www.w3.org/2000/svg" width="150" height="150"><path d="M67,85L87,96L99,84Z" fill="#711035" stroke="#711035" stroke-width="1.51"/><path d="M99,84L80,59L67,85Z" fill="#7b1236" stroke="#7b1236" stroke-width="1.51"/><path d="M87,96L99,101L99,84Z" fill="#670e34" stroke="#670e34" stroke-width="1.51"/><path d="M99,84L91,49L80,59Z" fill="#801437" stroke="#801437" stroke-width="1.51"/><path d="M80,59L57,55L67,85Z" fill="#8e1838" stroke="#8e1838" stroke-width="1.51"/><path d="M62,22L57,55L80,59Z" fill="#a4203c" stroke="#a4203c" stroke-width="1.51"/><path d="M57,55L47,70L67,85Z" fill="#951a3a" stroke="#951a3a" stroke-width="1.51"/><path d="M87,96L79,119L99,101Z" fill="#640e34" stroke="#640e34" stroke-width="1.51"/><path d="M67,85L79,119L87,96Z" fill="#6e0f35" stroke="#6e0f35" stroke-width="1.51"/><path d="M46,113L79,119L67,85Z" fill="#761336" stroke="#761336" stroke-width="1.51"/><path d="M79,119L104,123L99,101Z" fill="#5b0c33" stroke="#5b0c33" stroke-width="1.51"/><path d="M99,101L128,108L99,84Z" fill="#5c0c33" stroke="#5c0c33" stroke-width="1.51"/><path d="M47,70L46,113L67,85Z" fill="#8b1839" stroke="#8b1839" stroke-width="1.51"/><path d="M46,113L49,119L79,119Z" fill="#761536" stroke="#761536" stroke-width="1.51"/><path d="M112,154L115,136L104,123Z" fill="#470f30" stroke="#470f30" stroke-width="1.51"/><path d="M104,123L128,108L99,101Z" fill="#540a32" stroke="#540a32" stroke-width="1.51"/><path d="M99,84L131,52L91,49Z" fill="#781337" stroke="#781337" stroke-width="1.51"/><path d="M128,108L135,68L99,84Z" fill="#5d0f33" stroke="#5d0f33" stroke-width="1.51"/><path d="M135,68L131,52L99,84Z" fill="#6a1335" stroke="#6a1335" stroke-width="1.51"/><path d="M91,49L62,22L80,59Z" fill="#9c1d3b" stroke="#9c1d3b" stroke-width="1.51"/><path d="M131,52L101,23L91,49Z" fill="#8a193a" stroke="#8a193a" stroke-width="1.51"/><path d="M57,55L12,38L47,70Z" fill="#b6263f" stroke="#b6263f" stroke-width="1.51"/><path d="M101,23L62,22L91,49Z" fill="#a0203b" stroke="#a0203b" stroke-width="1.51"/><path d="M63,145L104,123L79,119Z" fill="#5c1232" stroke="#5c1232" stroke-width="1.51"/><path d="M104,123L115,136L128,108Z" fill="#4b0e30" stroke="#4b0e30" stroke-width="1.51"/><path d="M62,22L51,23L57,55Z" fill="#b6273f" stroke="#b6273f" stroke-width="1.51"/><path d="M47,70L21,102L46,113Z" fill="#951c3b" stroke="#951c3b" stroke-width="1.51"/><path d="M46,113L35,133L49,119Z" fill="#801a38" stroke="#801a38" stroke-width="1.51"/><path d="M16,78L21,102L47,70Z" fill="#a2213b" stroke="#a2213b" stroke-width="1.51"/><path d="M12,38L16,78L47,70Z" fill="#b6283e" stroke="#b6283e" stroke-width="1.51"/><path d="M49,119L63,145L79,119Z" fill="#6b1535" stroke="#6b1535" stroke-width="1.51"/><path d="M46,142L63,145L49,119Z" fill="#711b36" stroke="#711b36" stroke-width="1.51"/><path d="M21,102L35,133L46,113Z" fill="#8b1c3a" stroke="#8b1c3a" stroke-width="1.51"/><path d="M35,133L46,142L49,119Z" fill="#7c1d37" stroke="#7c1d37" stroke-width="1.51"/><path d="M131,52L137,23L101,23Z" fill="#871e39" stroke="#871e39" stroke-width="1.51"/><path d="M135,68L153,51L131,52Z" fill="#6b1a35" stroke="#6b1a35" stroke-width="1.51"/><path d="M158,65L153,51L135,68Z" fill="#631a33" stroke="#631a33" stroke-width="1.51"/><path d="M160,109L158,65L135,68Z" fill="#531631" stroke="#531631" stroke-width="1.51"/><path d="M160,109L135,68L128,108Z" fill="#4e1231" stroke="#4e1231" stroke-width="1.51"/><path d="M115,136L145,127L128,108Z" fill="#44102f" stroke="#44102f" stroke-width="1.51"/><path d="M153,51L137,23L131,52Z" fill="#781f37" stroke="#781f37" stroke-width="1.51"/><path d="M101,23L84,-2L62,22Z" fill="#aa263c" stroke="#aa263c" stroke-width="1.51"/><path d="M120,157L112,154L120,182Z" fill="#3d122e" stroke="#3d122e" stroke-width="1.51"/><path d="M63,145L112,154L104,123Z" fill="#4f1231" stroke="#4f1231" stroke-width="1.51"/><path d="M115,136L120,157L145,127Z" fill="#3e122f" stroke="#3e122f" stroke-width="1.51"/><path d="M111,-9L84,-2L101,23Z" fill="#a4273b" stroke="#a4273b" stroke-width="1.51"/><path d="M62,22L39,0L51,23Z" fill="#c62f3f" stroke="#c62f3f" stroke-width="1.51"/><path d="M21,102L7,111L35,133Z" fill="#91203a" stroke="#91203a" stroke-width="1.51"/><path d="M35,133L22,148L46,142Z" fill="#7e2138" stroke="#7e2138" stroke-width="1.51"/><path d="M16,78L7,111L21,102Z" fill="#a0243b" stroke="#a0243b" stroke-width="1.51"/><path d="M16,78L-24,88L7,111Z" fill="#aa293b" stroke="#aa293b" stroke-width="1.51"/><path d="M51,23L12,38L57,55Z" fill="#c32a40" stroke="#c32a40" stroke-width="1.51"/><path d="M12,17L12,38L51,23Z" fill="#d33541" stroke="#d33541" stroke-width="1.51"/><path d="M145,127L160,109L128,108Z" fill="#41102f" stroke="#41102f" stroke-width="1.51"/><path d="M112,154L120,157L115,136Z" fill="#3e122e" stroke="#3e122e" stroke-width="1.51"/><path d="M91,173L112,154L63,145Z" fill="#4e1531" stroke="#4e1531" stroke-width="1.51"/><path d="M177,83L164,48L158,65Z" fill="#5f1933" stroke="#5f1933" stroke-width="1.51"/><path d="M158,65L164,48L153,51Z" fill="#681c34" stroke="#681c34" stroke-width="1.51"/><path d="M153,51L161,22L137,23Z" fill="#7a2337" stroke="#7a2337" stroke-width="1.51"/><path d="M160,109L177,83L158,65Z" fill="#4f1531" stroke="#4f1531" stroke-width="1.51"/><path d="M166,139L168,110L160,109Z" fill="#3c122e" stroke="#3c122e" stroke-width="1.51"/><path d="M166,139L160,109L145,127Z" fill="#39122e" stroke="#39122e" stroke-width="1.51"/><path d="M52,-18L39,0L62,22Z" fill="#cd343f" stroke="#cd343f" stroke-width="1.51"/><path d="M78,182L91,173L63,145Z" fill="#551631" stroke="#551631" stroke-width="1.51"/><path d="M7,111L22,148L35,133Z" fill="#892339" stroke="#892339" stroke-width="1.51"/><path d="M84,-2L52,-18L62,22Z" fill="#be2f3d" stroke="#be2f3d" stroke-width="1.51"/><path d="M136,3L111,-9L101,23Z" fill="#98253a" stroke="#98253a" stroke-width="1.51"/><path d="M136,3L101,23L137,23Z" fill="#8e2339" stroke="#8e2339" stroke-width="1.51"/><path d="M162,5L136,3L137,23Z" fill="#872938" stroke="#872938" stroke-width="1.51"/><path d="M43,168L63,145L46,142Z" fill="#6c1e35" stroke="#6c1e35" stroke-width="1.51"/><path d="M168,110L177,83L160,109Z" fill="#47132f" stroke="#47132f" stroke-width="1.51"/><path d="M39,0L12,17L51,23Z" fill="#d53541" stroke="#d53541" stroke-width="1.51"/><path d="M12,38L-15,65L16,78Z" fill="#c12f3d" stroke="#c12f3d" stroke-width="1.51"/><path d="M166,139L156,141L156,178Z" fill="#2d142c" stroke="#2d142c" stroke-width="1.51"/><path d="M120,157L156,141L145,127Z" fill="#35132d" stroke="#35132d" stroke-width="1.51"/><path d="M12,17L-4,39L12,38Z" fill="#da3941" stroke="#da3941" stroke-width="1.51"/><path d="M22,148L43,168L46,142Z" fill="#782237" stroke="#782237" stroke-width="1.51"/><path d="M164,48L161,22L153,51Z" fill="#752136" stroke="#752136" stroke-width="1.51"/><path d="M162,5L186,16L173,0Z" fill="#872a37" stroke="#872a37" stroke-width="1.51"/><path d="M-4,39L-15,65L12,38Z" fill="#d1353f" stroke="#d1353f" stroke-width="1.51"/><path d="M7,111L-8,123L22,148Z" fill="#922639" stroke="#922639" stroke-width="1.51"/><path d="M-15,65L-17,73L16,78Z" fill="#b82d3c" stroke="#b82d3c" stroke-width="1.51"/><path d="M-23,118L-8,123L7,111Z" fill="#9a273a" stroke="#9a273a" stroke-width="1.51"/><path d="M22,148L14,182L43,168Z" fill="#7d2537" stroke="#7d2537" stroke-width="1.51"/><path d="M111,-9L113,-17L84,-2Z" fill="#a3273b" stroke="#a3273b" stroke-width="1.51"/><path d="M130,-19L113,-17L111,-9Z" fill="#9a273a" stroke="#9a273a" stroke-width="1.51"/><path d="M130,-19L111,-9L136,3Z" fill="#962939" stroke="#962939" stroke-width="1.51"/><path d="M156,141L166,139L145,127Z" fill="#34132d" stroke="#34132d" stroke-width="1.51"/><path d="M168,110L186,130L177,83Z" fill="#42122f" stroke="#42122f" stroke-width="1.51"/><path d="M156,178L156,141L120,157Z" fill="#30142c" stroke="#30142c" stroke-width="1.51"/><path d="M91,173L120,182L112,154Z" fill="#42122f" stroke="#42122f" stroke-width="1.51"/><path d="M43,168L78,182L63,145Z" fill="#621a33" stroke="#621a33" stroke-width="1.51"/><path d="M62,-22L52,-18L84,-2Z" fill="#bf2f3d" stroke="#bf2f3d" stroke-width="1.51"/><path d="M39,0L12,-11L12,17Z" fill="#e23e41" stroke="#e23e41" stroke-width="1.51"/><path d="M113,-17L62,-22L84,-2Z" fill="#ae2a3b" stroke="#ae2a3b" stroke-width="1.51"/><path d="M-19,37L-24,88L-17,73Z" fill="#bf2f3d" stroke="#bf2f3d" stroke-width="1.51"/><path d="M-17,73L-24,88L16,78Z" fill="#b32b3c" stroke="#b32b3c" stroke-width="1.51"/><path d="M62,-22L33,-16L52,-18Z" fill="#cf353f" stroke="#cf353f" stroke-width="1.51"/><path d="M52,-18L33,-16L39,0Z" fill="#d73740" stroke="#d73740" stroke-width="1.51"/><path d="M12,17L-6,17L-4,39Z" fill="#e13d41" stroke="#e13d41" stroke-width="1.51"/><path d="M78,182L120,182L91,173Z" fill="#491330" stroke="#491330" stroke-width="1.51"/><path d="M-15,65L-19,37L-17,73Z" fill="#c6323e" stroke="#c6323e" stroke-width="1.51"/><path d="M-4,39L-19,37L-15,65Z" fill="#d1363f" stroke="#d1363f" stroke-width="1.51"/><path d="M-2,11L-6,17L12,17Z" fill="#e54041" stroke="#e54041" stroke-width="1.51"/><path d="M161,22L162,5L137,23Z" fill="#822737" stroke="#822737" stroke-width="1.51"/><path d="M162,5L161,22L186,16Z" fill="#832837" stroke="#832837" stroke-width="1.51"/><path d="M12,-11L-2,11L12,17Z" fill="#e74040" stroke="#e74040" stroke-width="1.51"/><path d="M113,-17L139,-39L62,-22Z" fill="#a2273b" stroke="#a2273b" stroke-width="1.51"/><path d="M162,5L130,-19L136,3Z" fill="#8d2b38" stroke="#8d2b38" stroke-width="1.51"/><path d="M-6,17L-19,37L-4,39Z" fill="#de3b41" stroke="#de3b41" stroke-width="1.51"/><path d="M-24,88L-23,118L7,111Z" fill="#a1273b" stroke="#a1273b" stroke-width="1.51"/><path d="M-8,123L-14,151L22,148Z" fill="#8e2b38" stroke="#8e2b38" stroke-width="1.51"/><path d="M166,139L186,130L168,110Z" fill="#39132e" stroke="#39132e" stroke-width="1.51"/><path d="M176,186L186,130L166,139Z" fill="#2d142c" stroke="#2d142c" stroke-width="1.51"/><path d="M33,-16L12,-11L39,0Z" fill="#df3c41" stroke="#df3c41" stroke-width="1.51"/><path d="M-2,11L-26,15L-6,17Z" fill="#e64141" stroke="#e64141" stroke-width="1.51"/><path d="M-6,17L-26,15L-19,37Z" fill="#e23e41" stroke="#e23e41" stroke-width="1.51"/><path d="M-25,147L-14,151L-8,123Z" fill="#8e2b38" stroke="#8e2b38" stroke-width="1.51"/><path d="M43,168L14,182L78,182Z" fill="#711f36" stroke="#711f36" stroke-width="1.51"/><path d="M167,-28L139,-39L130,-19Z" fill="#8c2c38" stroke="#8c2c38" stroke-width="1.51"/><path d="M186,16L161,22L164,48Z" fill="#7c2437" stroke="#7c2437" stroke-width="1.51"/><path d="M186,16L164,48L177,83Z" fill="#6d1e35" stroke="#6d1e35" stroke-width="1.51"/><path d="M186,130L186,16L177,83Z" fill="#551631" stroke="#551631" stroke-width="1.51"/><path d="M120,182L156,178L120,157Z" fill="#36132d" stroke="#36132d" stroke-width="1.51"/><path d="M-4,178L14,182L22,148Z" fill="#852937" stroke="#852937" stroke-width="1.51"/><path d="M-10,-18L-26,15L-2,11Z" fill="#ec4440" stroke="#ec4440" stroke-width="1.51"/><path d="M-19,37L-26,15L-24,88Z" fill="#d1363f" stroke="#d1363f" stroke-width="1.51"/><path d="M-14,151L-4,178L22,148Z" fill="#892c37" stroke="#892c37" stroke-width="1.51"/><path d="M-23,118L-25,147L-8,123Z" fill="#942939" stroke="#942939" stroke-width="1.51"/><path d="M-24,88L-25,147L-23,118Z" fill="#9a273a" stroke="#9a273a" stroke-width="1.51"/><path d="M-36,-9L-25,147L-24,88Z" fill="#b62c3c" stroke="#b62c3c" stroke-width="1.51"/><path d="M-19,169L-4,178L-14,151Z" fill="#8a2c37" stroke="#8a2c37" stroke-width="1.51"/><path d="M130,-19L139,-39L113,-17Z" fill="#952939" stroke="#952939" stroke-width="1.51"/><path d="M-36,-37L-10,-18L33,-16Z" fill="#ee4540" stroke="#ee4540" stroke-width="1.51"/><path d="M167,-28L130,-19L162,5Z" fill="#8a2c37" stroke="#8a2c37" stroke-width="1.51"/><path d="M12,-11L-10,-18L-2,11Z" fill="#ee4540" stroke="#ee4540" stroke-width="1.51"/><path d="M33,-16L-10,-18L12,-11Z" fill="#e84140" stroke="#e84140" stroke-width="1.51"/><path d="M-36,-37L33,-16L62,-22Z" fill="#e33f41" stroke="#e33f41" stroke-width="1.51"/><path d="M-25,147L-19,169L-14,151Z" fill="#8a2c37" stroke="#8a2c37" stroke-width="1.51"/><path d="M173,0L167,-28L162,5Z" fill="#8a2c37" stroke="#8a2c37" stroke-width="1.51"/><path d="M186,16L167,-28L173,0Z" fill="#8a2c37" stroke="#8a2c37" stroke-width="1.51"/><path d="M156,178L176,186L166,139Z" fill="#2d142c" stroke="#2d142c" stroke-width="1.51"/><path d="M120,182L176,186L156,178Z" fill="#2d142c" stroke="#2d142c" stroke-width="1.51"/><path d="M78,182L176,186L120,182Z" fill="#39122e" stroke="#39122e" stroke-width="1.51"/><path d="M14,182L176,186L78,182Z" fill="#4e1431" stroke="#4e1431" stroke-width="1.51"/><path d="M-26,15L-36,-9L-24,88Z" fill="#dd3b41" stroke="#dd3b41" stroke-width="1.51"/><path d="M-10,-18L-36,-9L-26,15Z" fill="#ee4540" stroke="#ee4540" stroke-width="1.51"/><path d="M-10,-18L-36,-37L-36,-9Z" fill="#ee4540" stroke="#ee4540" stroke-width="1.51"/><path d="M139,-39L-36,-37L62,-22Z" fill="#c9333e" stroke="#c9333e" stroke-width="1.51"/></svg>