<svg xmlns="http://www.w3.org/2000/svg" width="400" height="800"><path d="M186,374L273,414L224,336Z" fill="#7e1336" stroke="#7e1336" stroke-width="1.51"/><path d="M273,414L265,332L224,336Z" fill="#7a1336" stroke="#7a1336" stroke-width="1.51"/><path d="M273,414L319,393L265,332Z" fill="#6f1035" stroke="#6f1035" stroke-width="1.51"/><path d="M186,374L197,492L273,414Z" fill="#781135" stroke="#781135" stroke-width="1.51"/><path d="M273,414L293,465L319,393Z" fill="#660e34" stroke="#660e34" stroke-width="1.51"/><path d="M197,492L293,465L273,414Z" fill="#6c0f35" stroke="#6c0f35" stroke-width="1.51"/><path d="M150,417L197,492L186,374Z" fill="#841538" stroke="#841538" stroke-width="1.51"/><path d="M150,417L138,457L197,492Z" fill="#871638" stroke="#871638" stroke-width="1.51"/><path d="M265,332L288,250L224,336Z" fill="#821638" stroke="#821638" stroke-width="1.51"/><path d="M319,393L327,302L265,332Z" fill="#721236" stroke="#721236" stroke-width="1.51"/><path d="M224,336L120,317L186,374Z" fill="#921939" stroke="#921939" stroke-width="1.51"/><path d="M186,374L120,317L150,417Z" fill="#961b3a" stroke="#961b3a" stroke-width="1.51"/><path d="M150,417L57,468L138,457Z" fill="#981c3a" stroke="#981c3a" stroke-width="1.51"/><path d="M180,235L120,317L224,336Z" fill="#9b1c3b" stroke="#9b1c3b" stroke-width="1.51"/><path d="M293,465L340,472L319,393Z" fill="#600f33" stroke="#600f33" stroke-width="1.51"/><path d="M399,343L345,278L327,302Z" fill="#6e1935" stroke="#6e1935" stroke-width="1.51"/><path d="M356,532L340,472L293,465Z" fill="#580f32" stroke="#580f32" stroke-width="1.51"/><path d="M327,302L288,250L265,332Z" fill="#7c1537" stroke="#7c1537" stroke-width="1.51"/><path d="M327,302L345,278L288,250Z" fill="#791837" stroke="#791837" stroke-width="1.51"/><path d="M399,343L327,302L319,393Z" fill="#691634" stroke="#691634" stroke-width="1.51"/><path d="M288,250L180,235L224,336Z" fill="#8e1939" stroke="#8e1939" stroke-width="1.51"/><path d="M197,492L251,547L293,465Z" fill="#690f34" stroke="#690f34" stroke-width="1.51"/><path d="M142,528L186,538L197,492Z" fill="#7a1337" stroke="#7a1337" stroke-width="1.51"/><path d="M186,538L251,547L197,492Z" fill="#6e0f35" stroke="#6e0f35" stroke-width="1.51"/><path d="M414,397L399,343L319,393Z" fill="#5e1632" stroke="#5e1632" stroke-width="1.51"/><path d="M138,457L142,528L197,492Z" fill="#831638" stroke="#831638" stroke-width="1.51"/><path d="M57,468L142,528L138,457Z" fill="#941c3a" stroke="#941c3a" stroke-width="1.51"/><path d="M120,317L67,341L150,417Z" fill="#a6203c" stroke="#a6203c" stroke-width="1.51"/><path d="M55,261L67,341L120,317Z" fill="#b7283e" stroke="#b7283e" stroke-width="1.51"/><path d="M180,235L117,257L120,317Z" fill="#ac223d" stroke="#ac223d" stroke-width="1.51"/><path d="M340,472L414,397L319,393Z" fill="#5b1333" stroke="#5b1333" stroke-width="1.51"/><path d="M288,250L290,204L180,235Z" fill="#911b3a" stroke="#911b3a" stroke-width="1.51"/><path d="M345,278L290,204L288,250Z" fill="#811839" stroke="#811839" stroke-width="1.51"/><path d="M353,171L290,204L345,278Z" fill="#821c38" stroke="#821c38" stroke-width="1.51"/><path d="M340,472L421,453L414,397Z" fill="#531531" stroke="#531531" stroke-width="1.51"/><path d="M251,547L356,532L293,465Z" fill="#5b0c33" stroke="#5b0c33" stroke-width="1.51"/><path d="M36,390L57,468L150,417Z" fill="#a3213c" stroke="#a3213c" stroke-width="1.51"/><path d="M-14,344L36,390L67,341Z" fill="#b72b3c" stroke="#b72b3c" stroke-width="1.51"/><path d="M67,341L36,390L150,417Z" fill="#a9223c" stroke="#a9223c" stroke-width="1.51"/><path d="M356,532L421,453L340,472Z" fill="#511331" stroke="#511331" stroke-width="1.51"/><path d="M111,165L75,204L117,257Z" fill="#c52c41" stroke="#c52c41" stroke-width="1.51"/><path d="M290,204L190,172L180,235Z" fill="#9d1e3b" stroke="#9d1e3b" stroke-width="1.51"/><path d="M117,257L55,261L120,317Z" fill="#b9273f" stroke="#b9273f" stroke-width="1.51"/><path d="M75,204L55,261L117,257Z" fill="#c32c40" stroke="#c32c40" stroke-width="1.51"/><path d="M186,538L210,609L251,547Z" fill="#690e34" stroke="#690e34" stroke-width="1.51"/><path d="M251,547L296,629L356,532Z" fill="#540a33" stroke="#540a33" stroke-width="1.51"/><path d="M111,604L210,609L186,538Z" fill="#751336" stroke="#751336" stroke-width="1.51"/><path d="M111,604L186,538L142,528Z" fill="#7f1638" stroke="#7f1638" stroke-width="1.51"/><path d="M421,453L465,401L414,397Z" fill="#541631" stroke="#541631" stroke-width="1.51"/><path d="M414,397L465,401L399,343Z" fill="#5a1732" stroke="#5a1732" stroke-width="1.51"/><path d="M399,343L421,238L345,278Z" fill="#6b1c35" stroke="#6b1c35" stroke-width="1.51"/><path d="M480,469L465,401L421,453Z" fill="#511531" stroke="#511531" stroke-width="1.51"/><path d="M490,303L421,238L399,343Z" fill="#681c34" stroke="#681c34" stroke-width="1.51"/><path d="M290,204L295,113L190,172Z" fill="#981f3b" stroke="#981f3b" stroke-width="1.51"/><path d="M111,165L117,257L180,235Z" fill="#b6263f" stroke="#b6263f" stroke-width="1.51"/><path d="M421,238L353,171L345,278Z" fill="#781e37" stroke="#781e37" stroke-width="1.51"/><path d="M356,532L424,541L421,453Z" fill="#4a1430" stroke="#4a1430" stroke-width="1.51"/><path d="M424,594L424,541L356,532Z" fill="#44122f" stroke="#44122f" stroke-width="1.51"/><path d="M127,126L111,165L190,172Z" fill="#bc293f" stroke="#bc293f" stroke-width="1.51"/><path d="M190,172L111,165L180,235Z" fill="#b2253e" stroke="#b2253e" stroke-width="1.51"/><path d="M-25,246L-14,344L55,261Z" fill="#ca333f" stroke="#ca333f" stroke-width="1.51"/><path d="M55,261L-14,344L67,341Z" fill="#be2c3e" stroke="#be2c3e" stroke-width="1.51"/><path d="M36,390L-12,449L57,468Z" fill="#ac273b" stroke="#ac273b" stroke-width="1.51"/><path d="M56,565L111,604L142,528Z" fill="#8e1a3a" stroke="#8e1a3a" stroke-width="1.51"/><path d="M56,565L142,528L57,468Z" fill="#971e3b" stroke="#971e3b" stroke-width="1.51"/><path d="M210,609L296,629L251,547Z" fill="#5c0c33" stroke="#5c0c33" stroke-width="1.51"/><path d="M223,679L296,629L210,609Z" fill="#5b0f33" stroke="#5b0f33" stroke-width="1.51"/><path d="M-8,538L56,565L57,468Z" fill="#a0243b" stroke="#a0243b" stroke-width="1.51"/><path d="M-29,378L-12,449L36,390Z" fill="#b52c3c" stroke="#b52c3c" stroke-width="1.51"/><path d="M424,541L480,469L421,453Z" fill="#4c1430" stroke="#4c1430" stroke-width="1.51"/><path d="M-14,344L-29,378L36,390Z" fill="#bb2e3d" stroke="#bb2e3d" stroke-width="1.51"/><path d="M480,469L490,303L465,401Z" fill="#581732" stroke="#581732" stroke-width="1.51"/><path d="M465,401L490,303L399,343Z" fill="#5f1933" stroke="#5f1933" stroke-width="1.51"/><path d="M421,238L412,161L353,171Z" fill="#7a2237" stroke="#7a2237" stroke-width="1.51"/><path d="M56,565L63,599L111,604Z" fill="#901d3a" stroke="#901d3a" stroke-width="1.51"/><path d="M122,669L223,679L210,609Z" fill="#691334" stroke="#691334" stroke-width="1.51"/><path d="M-22,598L63,599L56,565Z" fill="#98233b" stroke="#98233b" stroke-width="1.51"/><path d="M296,629L351,634L356,532Z" fill="#4b0d31" stroke="#4b0d31" stroke-width="1.51"/><path d="M353,171L295,113L290,204Z" fill="#8b1d3a" stroke="#8b1d3a" stroke-width="1.51"/><path d="M331,107L295,113L353,171Z" fill="#8c2139" stroke="#8c2139" stroke-width="1.51"/><path d="M183,94L127,126L190,172Z" fill="#b5283e" stroke="#b5283e" stroke-width="1.51"/><path d="M7,108L-38,175L75,204Z" fill="#db3941" stroke="#db3941" stroke-width="1.51"/><path d="M424,541L490,543L480,469Z" fill="#491330" stroke="#491330" stroke-width="1.51"/><path d="M351,634L424,594L356,532Z" fill="#45102f" stroke="#45102f" stroke-width="1.51"/><path d="M504,185L412,161L421,238Z" fill="#782237" stroke="#782237" stroke-width="1.51"/><path d="M-67,495L-8,538L-12,449Z" fill="#aa293b" stroke="#aa293b" stroke-width="1.51"/><path d="M-12,449L-8,538L57,468Z" fill="#a9283b" stroke="#a9283b" stroke-width="1.51"/><path d="M295,113L183,94L190,172Z" fill="#a4233b" stroke="#a4233b" stroke-width="1.51"/><path d="M395,115L331,107L353,171Z" fill="#852338" stroke="#852338" stroke-width="1.51"/><path d="M75,204L-25,246L55,261Z" fill="#cd3240" stroke="#cd3240" stroke-width="1.51"/><path d="M-76,328L-74,385L-29,378Z" fill="#bd2e3d" stroke="#bd2e3d" stroke-width="1.51"/><path d="M-38,175L-25,246L75,204Z" fill="#d83841" stroke="#d83841" stroke-width="1.51"/><path d="M286,64L183,94L295,113Z" fill="#9f233b" stroke="#9f233b" stroke-width="1.51"/><path d="M122,669L210,609L111,604Z" fill="#781637" stroke="#781637" stroke-width="1.51"/><path d="M296,629L333,685L351,634Z" fill="#480f31" stroke="#480f31" stroke-width="1.51"/><path d="M490,303L503,253L421,238Z" fill="#6d1e35" stroke="#6d1e35" stroke-width="1.51"/><path d="M480,469L503,253L490,303Z" fill="#601a33" stroke="#601a33" stroke-width="1.51"/><path d="M424,594L490,543L424,541Z" fill="#44122f" stroke="#44122f" stroke-width="1.51"/><path d="M480,469L490,543L503,253Z" fill="#541631" stroke="#541631" stroke-width="1.51"/><path d="M36,668L122,669L63,599Z" fill="#8b1f3a" stroke="#8b1f3a" stroke-width="1.51"/><path d="M63,599L122,669L111,604Z" fill="#891b3a" stroke="#891b3a" stroke-width="1.51"/><path d="M-29,378L-74,385L-12,449Z" fill="#b52c3c" stroke="#b52c3c" stroke-width="1.51"/><path d="M-76,328L-29,378L-14,344Z" fill="#bf2f3d" stroke="#bf2f3d" stroke-width="1.51"/><path d="M412,161L395,115L353,171Z" fill="#7f2438" stroke="#7f2438" stroke-width="1.51"/><path d="M491,130L395,115L412,161Z" fill="#7e2537" stroke="#7e2537" stroke-width="1.51"/><path d="M-72,275L-76,328L-14,344Z" fill="#c5313e" stroke="#c5313e" stroke-width="1.51"/><path d="M351,634L399,662L424,594Z" fill="#3e122f" stroke="#3e122f" stroke-width="1.51"/><path d="M223,679L286,696L296,629Z" fill="#520f32" stroke="#520f32" stroke-width="1.51"/><path d="M333,685L286,696L296,762Z" fill="#460f30" stroke="#460f30" stroke-width="1.51"/><path d="M286,696L333,685L296,629Z" fill="#4a0e31" stroke="#4a0e31" stroke-width="1.51"/><path d="M424,594L469,612L490,543Z" fill="#41122f" stroke="#41122f" stroke-width="1.51"/><path d="M-74,385L-67,495L-12,449Z" fill="#b02b3b" stroke="#b02b3b" stroke-width="1.51"/><path d="M-8,538L-22,598L56,565Z" fill="#a0263b" stroke="#a0263b" stroke-width="1.51"/><path d="M333,685L399,662L351,634Z" fill="#41112f" stroke="#41112f" stroke-width="1.51"/><path d="M331,107L286,64L295,113Z" fill="#93213a" stroke="#93213a" stroke-width="1.51"/><path d="M346,52L286,64L331,107Z" fill="#92233a" stroke="#92233a" stroke-width="1.51"/><path d="M-76,170L-72,275L-25,246Z" fill="#d53740" stroke="#d53740" stroke-width="1.51"/><path d="M-25,246L-72,275L-14,344Z" fill="#ca333e" stroke="#ca333e" stroke-width="1.51"/><path d="M399,662L469,612L424,594Z" fill="#3d122e" stroke="#3d122e" stroke-width="1.51"/><path d="M-111,547L-22,598L-8,538Z" fill="#a2273b" stroke="#a2273b" stroke-width="1.51"/><path d="M503,253L504,185L421,238Z" fill="#742036" stroke="#742036" stroke-width="1.51"/><path d="M40,95L75,204L111,165Z" fill="#d03241" stroke="#d03241" stroke-width="1.51"/><path d="M40,95L111,165L127,126Z" fill="#cf3241" stroke="#cf3241" stroke-width="1.51"/><path d="M-22,598L36,668L63,599Z" fill="#96243a" stroke="#96243a" stroke-width="1.51"/><path d="M203,763L286,696L223,679Z" fill="#551232" stroke="#551232" stroke-width="1.51"/><path d="M103,33L127,126L183,94Z" fill="#c42f3f" stroke="#c42f3f" stroke-width="1.51"/><path d="M103,33L40,95L127,126Z" fill="#d43541" stroke="#d43541" stroke-width="1.51"/><path d="M286,64L189,23L183,94Z" fill="#ab273b" stroke="#ab273b" stroke-width="1.51"/><path d="M395,115L346,52L331,107Z" fill="#8a2539" stroke="#8a2539" stroke-width="1.51"/><path d="M423,38L346,52L395,115Z" fill="#862838" stroke="#862838" stroke-width="1.51"/><path d="M40,95L7,108L75,204Z" fill="#d83841" stroke="#d83841" stroke-width="1.51"/><path d="M504,185L491,130L412,161Z" fill="#7b2437" stroke="#7b2437" stroke-width="1.51"/><path d="M188,-19L189,23L286,-44Z" fill="#b02b3b" stroke="#b02b3b" stroke-width="1.51"/><path d="M40,95L-19,45L7,108Z" fill="#e43f41" stroke="#e43f41" stroke-width="1.51"/><path d="M333,685L361,736L399,662Z" fill="#3d122e" stroke="#3d122e" stroke-width="1.51"/><path d="M399,662L503,663L469,612Z" fill="#3b122e" stroke="#3b122e" stroke-width="1.51"/><path d="M296,762L361,736L333,685Z" fill="#40112f" stroke="#40112f" stroke-width="1.51"/><path d="M203,763L223,679L122,669Z" fill="#651534" stroke="#651534" stroke-width="1.51"/><path d="M189,23L103,33L183,94Z" fill="#c02e3e" stroke="#c02e3e" stroke-width="1.51"/><path d="M-86,132L-38,175L7,108Z" fill="#e03d41" stroke="#e03d41" stroke-width="1.51"/><path d="M-86,132L-76,170L-38,175Z" fill="#de3b41" stroke="#de3b41" stroke-width="1.51"/><path d="M-38,175L-76,170L-25,246Z" fill="#db3941" stroke="#db3941" stroke-width="1.51"/><path d="M-72,275L-86,132L-76,328Z" fill="#d23640" stroke="#d23640" stroke-width="1.51"/><path d="M122,775L203,763L122,669Z" fill="#6d1a35" stroke="#6d1a35" stroke-width="1.51"/><path d="M-67,495L-111,547L-8,538Z" fill="#a6283b" stroke="#a6283b" stroke-width="1.51"/><path d="M-22,598L0,688L36,668Z" fill="#972739" stroke="#972739" stroke-width="1.51"/><path d="M-74,385L-111,547L-67,495Z" fill="#ac293c" stroke="#ac293c" stroke-width="1.51"/><path d="M-76,328L-111,547L-74,385Z" fill="#b32b3c" stroke="#b32b3c" stroke-width="1.51"/><path d="M-86,132L-111,547L-76,328Z" fill="#c1303e" stroke="#c1303e" stroke-width="1.51"/><path d="M203,763L296,762L286,696Z" fill="#4d1231" stroke="#4d1231" stroke-width="1.51"/><path d="M40,743L122,775L122,669Z" fill="#7f2038" stroke="#7f2038" stroke-width="1.51"/><path d="M-113,664L0,688L-22,598Z" fill="#982839" stroke="#982839" stroke-width="1.51"/><path d="M500,744L503,663L399,662Z" fill="#37132d" stroke="#37132d" stroke-width="1.51"/><path d="M469,612L503,663L490,543Z" fill="#3f112f" stroke="#3f112f" stroke-width="1.51"/><path d="M490,543L503,663L503,253Z" fill="#4d1430" stroke="#4d1430" stroke-width="1.51"/><path d="M503,253L503,663L504,185Z" fill="#5c1832" stroke="#5c1832" stroke-width="1.51"/><path d="M103,33L71,26L40,95Z" fill="#db3941" stroke="#db3941" stroke-width="1.51"/><path d="M55,-41L71,26L103,33Z" fill="#de3b41" stroke="#de3b41" stroke-width="1.51"/><path d="M463,37L423,38L395,115Z" fill="#842938" stroke="#842938" stroke-width="1.51"/><path d="M286,-44L189,23L286,64Z" fill="#a7283b" stroke="#a7283b" stroke-width="1.51"/><path d="M189,23L188,-19L103,33Z" fill="#c3303e" stroke="#c3303e" stroke-width="1.51"/><path d="M286,-44L286,64L346,52Z" fill="#99253a" stroke="#99253a" stroke-width="1.51"/><path d="M203,763L248,811L296,762Z" fill="#4d1331" stroke="#4d1331" stroke-width="1.51"/><path d="M40,743L122,669L36,668Z" fill="#882239" stroke="#882239" stroke-width="1.51"/><path d="M-76,170L-86,132L-72,275Z" fill="#db3941" stroke="#db3941" stroke-width="1.51"/><path d="M-19,45L-86,132L7,108Z" fill="#e43f41" stroke="#e43f41" stroke-width="1.51"/><path d="M0,688L40,743L36,668Z" fill="#8f2739" stroke="#8f2739" stroke-width="1.51"/><path d="M-26,742L40,743L0,688Z" fill="#902a38" stroke="#902a38" stroke-width="1.51"/><path d="M362,-32L286,-44L346,52Z" fill="#972839" stroke="#972839" stroke-width="1.51"/><path d="M491,130L463,37L395,115Z" fill="#812737" stroke="#812737" stroke-width="1.51"/><path d="M-111,547L-110,624L-22,598Z" fill="#9e263a" stroke="#9e263a" stroke-width="1.51"/><path d="M55,-41L-19,45L71,26Z" fill="#e64041" stroke="#e64041" stroke-width="1.51"/><path d="M71,26L-19,45L40,95Z" fill="#e23e40" stroke="#e23e40" stroke-width="1.51"/><path d="M361,736L416,770L399,662Z" fill="#36132d" stroke="#36132d" stroke-width="1.51"/><path d="M321,846L416,770L361,736Z" fill="#35132d" stroke="#35132d" stroke-width="1.51"/><path d="M321,846L361,736L296,762Z" fill="#3c122e" stroke="#3c122e" stroke-width="1.51"/><path d="M220,836L248,811L203,763Z" fill="#511531" stroke="#511531" stroke-width="1.51"/><path d="M362,-32L346,52L392,-33Z" fill="#902a38" stroke="#902a38" stroke-width="1.51"/><path d="M392,-33L346,52L423,38Z" fill="#8b2b38" stroke="#8b2b38" stroke-width="1.51"/><path d="M-113,664L-26,742L0,688Z" fill="#942939" stroke="#942939" stroke-width="1.51"/><path d="M40,743L111,823L122,775Z" fill="#7b2238" stroke="#7b2238" stroke-width="1.51"/><path d="M122,775L220,836L203,763Z" fill="#5d1832" stroke="#5d1832" stroke-width="1.51"/><path d="M-110,624L-113,664L-22,598Z" fill="#9a273a" stroke="#9a273a" stroke-width="1.51"/><path d="M-111,547L-113,664L-110,624Z" fill="#9c263a" stroke="#9c263a" stroke-width="1.51"/><path d="M359,-128L272,-104L286,-44Z" fill="#9c263a" stroke="#9c263a" stroke-width="1.51"/><path d="M463,37L392,-33L423,38Z" fill="#882b37" stroke="#882b37" stroke-width="1.51"/><path d="M416,770L500,744L399,662Z" fill="#34132d" stroke="#34132d" stroke-width="1.51"/><path d="M188,-19L143,-58L103,33Z" fill="#ca333e" stroke="#ca333e" stroke-width="1.51"/><path d="M180,-93L143,-58L188,-19Z" fill="#c1303d" stroke="#c1303d" stroke-width="1.51"/><path d="M111,823L220,836L122,775Z" fill="#661c34" stroke="#661c34" stroke-width="1.51"/><path d="M248,811L321,846L296,762Z" fill="#42122f" stroke="#42122f" stroke-width="1.51"/><path d="M416,770L489,824L500,744Z" fill="#2f142c" stroke="#2f142c" stroke-width="1.51"/><path d="M43,846L111,823L40,743Z" fill="#7e2537" stroke="#7e2537" stroke-width="1.51"/><path d="M143,-58L55,-41L103,33Z" fill="#da3941" stroke="#da3941" stroke-width="1.51"/><path d="M-19,45L-69,31L-86,132Z" fill="#e74141" stroke="#e74141" stroke-width="1.51"/><path d="M-36,-19L-69,31L-19,45Z" fill="#ec4440" stroke="#ec4440" stroke-width="1.51"/><path d="M256,911L321,846L248,811Z" fill="#45122f" stroke="#45122f" stroke-width="1.51"/><path d="M272,-104L180,-93L286,-44Z" fill="#aa293b" stroke="#aa293b" stroke-width="1.51"/><path d="M286,-44L180,-93L188,-19Z" fill="#b12b3b" stroke="#b12b3b" stroke-width="1.51"/><path d="M143,-58L109,-96L55,-41Z" fill="#d93841" stroke="#d93841" stroke-width="1.51"/><path d="M-23,833L43,846L40,743Z" fill="#862a37" stroke="#862a37" stroke-width="1.51"/><path d="M-113,664L-73,759L-26,742Z" fill="#912a38" stroke="#912a38" stroke-width="1.51"/><path d="M40,-84L-36,-19L55,-41Z" fill="#ea4340" stroke="#ea4340" stroke-width="1.51"/><path d="M55,-41L-36,-19L-19,45Z" fill="#ee4540" stroke="#ee4540" stroke-width="1.51"/><path d="M359,-128L286,-44L362,-32Z" fill="#962939" stroke="#962939" stroke-width="1.51"/><path d="M463,37L502,-29L392,-33Z" fill="#8a2c37" stroke="#8a2c37" stroke-width="1.51"/><path d="M392,-33L359,-128L362,-32Z" fill="#8f2b38" stroke="#8f2b38" stroke-width="1.51"/><path d="M491,130L502,-29L463,37Z" fill="#862a37" stroke="#862a37" stroke-width="1.51"/><path d="M504,185L502,-29L491,130Z" fill="#812737" stroke="#812737" stroke-width="1.51"/><path d="M180,-93L109,-96L143,-58Z" fill="#ca333e" stroke="#ca333e" stroke-width="1.51"/><path d="M272,-104L109,-96L180,-93Z" fill="#ba2d3c" stroke="#ba2d3c" stroke-width="1.51"/><path d="M220,836L256,911L248,811Z" fill="#4d1430" stroke="#4d1430" stroke-width="1.51"/><path d="M220,918L256,911L220,836Z" fill="#4f1531" stroke="#4f1531" stroke-width="1.51"/><path d="M-23,833L40,743L-26,742Z" fill="#8c2b38" stroke="#8c2b38" stroke-width="1.51"/><path d="M321,846L438,845L416,770Z" fill="#2f142c" stroke="#2f142c" stroke-width="1.51"/><path d="M109,-96L40,-84L55,-41Z" fill="#e03d41" stroke="#e03d41" stroke-width="1.51"/><path d="M438,845L489,824L416,770Z" fill="#2d142c" stroke="#2d142c" stroke-width="1.51"/><path d="M-36,-19L-98,-12L-69,31Z" fill="#ee4540" stroke="#ee4540" stroke-width="1.51"/><path d="M-69,31L-98,-12L-86,132Z" fill="#e94240" stroke="#e94240" stroke-width="1.51"/><path d="M-86,132L-98,-12L-111,547Z" fill="#d63740" stroke="#d63740" stroke-width="1.51"/><path d="M-33,-85L-98,-12L-36,-19Z" fill="#ee4540" stroke="#ee4540" stroke-width="1.51"/><path d="M-73,759L-23,833L-26,742Z" fill="#8c2c38" stroke="#8c2c38" stroke-width="1.51"/><path d="M502,-29L421,-106L392,-33Z" fill="#8a2c37" stroke="#8a2c37" stroke-width="1.51"/><path d="M421,-106L359,-128L392,-33Z" fill="#8b2c38" stroke="#8b2c38" stroke-width="1.51"/><path d="M272,-104L359,-128L109,-96Z" fill="#aa293b" stroke="#aa293b" stroke-width="1.51"/><path d="M220,836L111,823L139,924Z" fill="#651b34" stroke="#651b34" stroke-width="1.51"/><path d="M220,918L220,836L139,924Z" fill="#591732" stroke="#591732" stroke-width="1.51"/><path d="M321,846L414,892L438,845Z" fill="#2f142c" stroke="#2f142c" stroke-width="1.51"/><path d="M139,924L111,823L43,846Z" fill="#782237" stroke="#782237" stroke-width="1.51"/><path d="M345,913L414,892L321,846Z" fill="#35132d" stroke="#35132d" stroke-width="1.51"/><path d="M438,845L493,880L489,824Z" fill="#2d142c" stroke="#2d142c" stroke-width="1.51"/><path d="M345,913L321,846L256,911Z" fill="#3e122f" stroke="#3e122f" stroke-width="1.51"/><path d="M-76,-106L40,-84L109,-96Z" fill="#e94240" stroke="#e94240" stroke-width="1.51"/><path d="M-76,-106L-33,-85L40,-84Z" fill="#ee4540" stroke="#ee4540" stroke-width="1.51"/><path d="M40,-84L-33,-85L-36,-19Z" fill="#ee4540" stroke="#ee4540" stroke-width="1.51"/><path d="M220,918L345,913L256,911Z" fill="#45122f" stroke="#45122f" stroke-width="1.51"/><path d="M220,918L139,924L345,913Z" fill="#4e1531" stroke="#4e1531" stroke-width="1.51"/><path d="M35,918L139,924L43,846Z" fill="#7d2537" stroke="#7d2537" stroke-width="1.51"/><path d="M-1,927L35,918L43,846Z" fill="#852a37" stroke="#852a37" stroke-width="1.51"/><path d="M-73,759L-71,853L-23,833Z" fill="#8a2c37" stroke="#8a2c37" stroke-width="1.51"/><path d="M-95,906L-71,853L-73,759Z" fill="#8a2c37" stroke="#8a2c37" stroke-width="1.51"/><path d="M489,824L493,880L500,744Z" fill="#2d142c" stroke="#2d142c" stroke-width="1.51"/><path d="M414,892L493,880L438,845Z" fill="#2d142c" stroke="#2d142c" stroke-width="1.51"/><path d="M345,913L493,880L414,892Z" fill="#2d142c" stroke="#2d142c" stroke-width="1.51"/><path d="M502,-29L503,-117L421,-106Z" fill="#8a2c37" stroke="#8a2c37" stroke-width="1.51"/><path d="M421,-106L503,-117L359,-128Z" fill="#8a2c37" stroke="#8a2c37" stroke-width="1.51"/><path d="M504,185L503,-117L502,-29Z" fill="#882b37" stroke="#882b37" stroke-width="1.51"/><path d="M-1,927L43,846L-23,833Z" fill="#892b37" stroke="#892b37" stroke-width="1.51"/><path d="M-33,-85L-76,-106L-98,-12Z" fill="#ee4540" stroke="#ee4540" stroke-width="1.51"/><path d="M359,-128L-76,-106L109,-96Z" fill="#cf353f" stroke="#cf353f" stroke-width="1.51"/><path d="M35,918L-1,927L139,924Z" fill="#7f2637" stroke="#7f2637" stroke-width="1.51"/><path d="M-71,853L-1,927L-23,833Z" fill="#8a2c37" stroke="#8a2c37" stroke-width="1.51"/><path d="M-71,853L-95,906L-1,927Z" fill="#8a2c37" stroke="#8a2c37" stroke-width="1.51"/><path d="M-113,664L-95,906L-73,759Z" fill="#8c2c38" stroke="#8c2c38" stroke-width="1.51"/></svg>