<svg xmlns="http://www.w3.org/2000/svg" width="400" height="600"><path d="M221,320L234,276L171,286Z" fill="#7f1336" stroke="#7f1336" stroke-width="1.51"/><path d="M171,286L162,347L221,320Z" fill="#821437" stroke="#821437" stroke-width="1.51"/><path d="M162,347L184,375L221,320Z" fill="#7c1336" stroke="#7c1336" stroke-width="1.51"/><path d="M234,276L241,212L171,286Z" fill="#861637" stroke="#861637" stroke-width="1.51"/><path d="M241,212L151,211L171,286Z" fill="#931939" stroke="#931939" stroke-width="1.51"/><path d="M171,286L100,346L162,347Z" fill="#8f1939" stroke="#8f1939" stroke-width="1.51"/><path d="M305,336L310,285L234,276Z" fill="#6c0f35" stroke="#6c0f35" stroke-width="1.51"/><path d="M234,276L310,285L241,212Z" fill="#7b1337" stroke="#7b1337" stroke-width="1.51"/><path d="M305,336L234,276L221,320Z" fill="#721035" stroke="#721035" stroke-width="1.51"/><path d="M246,405L305,336L221,320Z" fill="#6a0f35" stroke="#6a0f35" stroke-width="1.51"/><path d="M151,211L92,264L171,286Z" fill="#a01e3c" stroke="#a01e3c" stroke-width="1.51"/><path d="M162,347L118,409L184,375Z" fill="#841638" stroke="#841638" stroke-width="1.51"/><path d="M92,264L100,346L171,286Z" fill="#9c1d3b" stroke="#9c1d3b" stroke-width="1.51"/><path d="M184,375L246,405L221,320Z" fill="#711035" stroke="#711035" stroke-width="1.51"/><path d="M226,435L246,405L184,375Z" fill="#6b0f34" stroke="#6b0f34" stroke-width="1.51"/><path d="M241,212L172,166L151,211Z" fill="#9c1d3b" stroke="#9c1d3b" stroke-width="1.51"/><path d="M151,211L100,195L92,264Z" fill="#b0243e" stroke="#b0243e" stroke-width="1.51"/><path d="M310,285L298,192L241,212Z" fill="#7c1537" stroke="#7c1537" stroke-width="1.51"/><path d="M241,212L231,130L172,166Z" fill="#9b1d3b" stroke="#9b1d3b" stroke-width="1.51"/><path d="M305,336L337,326L310,285Z" fill="#631034" stroke="#631034" stroke-width="1.51"/><path d="M310,285L349,253L298,192Z" fill="#711436" stroke="#711436" stroke-width="1.51"/><path d="M369,410L337,326L305,336Z" fill="#591033" stroke="#591033" stroke-width="1.51"/><path d="M92,264L67,307L100,346Z" fill="#a4213c" stroke="#a4213c" stroke-width="1.51"/><path d="M246,405L285,404L305,336Z" fill="#600d34" stroke="#600d34" stroke-width="1.51"/><path d="M172,166L100,195L151,211Z" fill="#ae233e" stroke="#ae233e" stroke-width="1.51"/><path d="M92,264L31,279L67,307Z" fill="#ae253c" stroke="#ae253c" stroke-width="1.51"/><path d="M246,405L289,459L285,404Z" fill="#5b0c33" stroke="#5b0c33" stroke-width="1.51"/><path d="M169,443L226,435L184,375Z" fill="#701035" stroke="#701035" stroke-width="1.51"/><path d="M100,346L118,409L162,347Z" fill="#8f1a39" stroke="#8f1a39" stroke-width="1.51"/><path d="M68,389L118,409L100,346Z" fill="#961d3b" stroke="#961d3b" stroke-width="1.51"/><path d="M337,326L349,253L310,285Z" fill="#651234" stroke="#651234" stroke-width="1.51"/><path d="M118,409L169,443L184,375Z" fill="#7e1537" stroke="#7e1537" stroke-width="1.51"/><path d="M298,192L231,130L241,212Z" fill="#8e1a3a" stroke="#8e1a3a" stroke-width="1.51"/><path d="M172,166L107,139L100,195Z" fill="#b9273f" stroke="#b9273f" stroke-width="1.51"/><path d="M298,192L311,166L231,130Z" fill="#8c1a3a" stroke="#8c1a3a" stroke-width="1.51"/><path d="M345,195L311,166L298,192Z" fill="#7f1938" stroke="#7f1938" stroke-width="1.51"/><path d="M118,409L101,459L169,443Z" fill="#821738" stroke="#821738" stroke-width="1.51"/><path d="M67,307L68,389L100,346Z" fill="#9f213b" stroke="#9f213b" stroke-width="1.51"/><path d="M349,253L345,195L298,192Z" fill="#761837" stroke="#761837" stroke-width="1.51"/><path d="M35,191L31,279L92,264Z" fill="#b92a3e" stroke="#b92a3e" stroke-width="1.51"/><path d="M67,307L6,331L68,389Z" fill="#a6243c" stroke="#a6243c" stroke-width="1.51"/><path d="M100,195L35,191L92,264Z" fill="#bb293f" stroke="#bb293f" stroke-width="1.51"/><path d="M117,100L107,139L172,166Z" fill="#bd2940" stroke="#bd2940" stroke-width="1.51"/><path d="M397,370L399,335L337,326Z" fill="#531431" stroke="#531431" stroke-width="1.51"/><path d="M226,435L289,459L246,405Z" fill="#5e0c33" stroke="#5e0c33" stroke-width="1.51"/><path d="M288,501L289,459L242,514Z" fill="#520e32" stroke="#520e32" stroke-width="1.51"/><path d="M231,130L214,102L172,166Z" fill="#a3203c" stroke="#a3203c" stroke-width="1.51"/><path d="M293,111L214,102L231,130Z" fill="#9c203b" stroke="#9c203b" stroke-width="1.51"/><path d="M107,139L35,191L100,195Z" fill="#c42d40" stroke="#c42d40" stroke-width="1.51"/><path d="M68,389L101,459L118,409Z" fill="#911c3a" stroke="#911c3a" stroke-width="1.51"/><path d="M242,514L289,459L226,435Z" fill="#590e33" stroke="#590e33" stroke-width="1.51"/><path d="M337,326L412,269L349,253Z" fill="#601533" stroke="#601533" stroke-width="1.51"/><path d="M349,253L424,216L345,195Z" fill="#6d1b35" stroke="#6d1b35" stroke-width="1.51"/><path d="M369,410L305,336L285,404Z" fill="#580e33" stroke="#580e33" stroke-width="1.51"/><path d="M343,142L293,111L311,166Z" fill="#891c3a" stroke="#891c3a" stroke-width="1.51"/><path d="M311,166L293,111L231,130Z" fill="#921c3b" stroke="#921c3b" stroke-width="1.51"/><path d="M31,279L6,331L67,307Z" fill="#ae273c" stroke="#ae273c" stroke-width="1.51"/><path d="M68,389L29,455L101,459Z" fill="#931f3a" stroke="#931f3a" stroke-width="1.51"/><path d="M3,258L6,331L31,279Z" fill="#b62b3c" stroke="#b62b3c" stroke-width="1.51"/><path d="M334,472L369,410L285,404Z" fill="#4f0d31" stroke="#4f0d31" stroke-width="1.51"/><path d="M345,195L343,142L311,166Z" fill="#801b38" stroke="#801b38" stroke-width="1.51"/><path d="M416,151L343,142L345,195Z" fill="#7b1f37" stroke="#7b1f37" stroke-width="1.51"/><path d="M35,191L3,258L31,279Z" fill="#bf2e3d" stroke="#bf2e3d" stroke-width="1.51"/><path d="M369,410L397,370L337,326Z" fill="#511231" stroke="#511231" stroke-width="1.51"/><path d="M457,217L412,269L484,290Z" fill="#5f1a33" stroke="#5f1a33" stroke-width="1.51"/><path d="M399,335L412,269L337,326Z" fill="#581532" stroke="#581532" stroke-width="1.51"/><path d="M190,72L117,100L172,166Z" fill="#b6273e" stroke="#b6273e" stroke-width="1.51"/><path d="M107,139L31,138L35,191Z" fill="#cd3141" stroke="#cd3141" stroke-width="1.51"/><path d="M192,23L190,72L221,14Z" fill="#b1293c" stroke="#b1293c" stroke-width="1.51"/><path d="M214,102L190,72L172,166Z" fill="#aa233c" stroke="#aa233c" stroke-width="1.51"/><path d="M31,138L2,199L35,191Z" fill="#cf3440" stroke="#cf3440" stroke-width="1.51"/><path d="M35,191L2,199L3,258Z" fill="#c8323e" stroke="#c8323e" stroke-width="1.51"/><path d="M369,410L426,434L397,370Z" fill="#47132f" stroke="#47132f" stroke-width="1.51"/><path d="M289,459L334,472L285,404Z" fill="#520b32" stroke="#520b32" stroke-width="1.51"/><path d="M288,501L334,472L289,459Z" fill="#4d0c31" stroke="#4d0c31" stroke-width="1.51"/><path d="M242,514L226,435L169,443Z" fill="#640f34" stroke="#640f34" stroke-width="1.51"/><path d="M165,515L242,514L169,443Z" fill="#661234" stroke="#661234" stroke-width="1.51"/><path d="M101,459L165,515L169,443Z" fill="#781737" stroke="#781737" stroke-width="1.51"/><path d="M54,81L31,138L107,139Z" fill="#d23341" stroke="#d23341" stroke-width="1.51"/><path d="M412,269L424,216L349,253Z" fill="#631a33" stroke="#631a33" stroke-width="1.51"/><path d="M457,217L424,216L412,269Z" fill="#651b34" stroke="#651b34" stroke-width="1.51"/><path d="M343,142L347,106L293,111Z" fill="#891f39" stroke="#891f39" stroke-width="1.51"/><path d="M221,14L190,72L214,102Z" fill="#ac263c" stroke="#ac263c" stroke-width="1.51"/><path d="M388,95L347,106L343,142Z" fill="#842238" stroke="#842238" stroke-width="1.51"/><path d="M101,459L88,506L165,515Z" fill="#7f1b38" stroke="#7f1b38" stroke-width="1.51"/><path d="M-32,400L29,455L68,389Z" fill="#9e253b" stroke="#9e253b" stroke-width="1.51"/><path d="M70,498L88,506L101,459Z" fill="#881e39" stroke="#881e39" stroke-width="1.51"/><path d="M29,455L70,498L101,459Z" fill="#8e203a" stroke="#8e203a" stroke-width="1.51"/><path d="M424,216L416,151L345,195Z" fill="#701f35" stroke="#701f35" stroke-width="1.51"/><path d="M31,138L4,129L2,199Z" fill="#d63741" stroke="#d63741" stroke-width="1.51"/><path d="M54,81L4,129L31,138Z" fill="#d93841" stroke="#d93841" stroke-width="1.51"/><path d="M54,81L107,139L117,100Z" fill="#ce3141" stroke="#ce3141" stroke-width="1.51"/><path d="M129,14L54,81L117,100Z" fill="#d23341" stroke="#d23341" stroke-width="1.51"/><path d="M6,331L-32,400L68,389Z" fill="#a7273b" stroke="#a7273b" stroke-width="1.51"/><path d="M29,455L-25,513L70,498Z" fill="#932539" stroke="#932539" stroke-width="1.51"/><path d="M-84,333L-32,400L6,331Z" fill="#ad2a3b" stroke="#ad2a3b" stroke-width="1.51"/><path d="M-77,262L6,331L3,258Z" fill="#b92d3c" stroke="#b92d3c" stroke-width="1.51"/><path d="M-77,262L3,258L-87,231Z" fill="#c2303e" stroke="#c2303e" stroke-width="1.51"/><path d="M334,472L426,434L369,410Z" fill="#46102f" stroke="#46102f" stroke-width="1.51"/><path d="M288,501L353,505L334,472Z" fill="#480f30" stroke="#480f30" stroke-width="1.51"/><path d="M305,572L353,505L288,501Z" fill="#460f30" stroke="#460f30" stroke-width="1.51"/><path d="M424,216L457,217L416,151Z" fill="#6d1e35" stroke="#6d1e35" stroke-width="1.51"/><path d="M474,309L412,269L399,335Z" fill="#561631" stroke="#561631" stroke-width="1.51"/><path d="M474,309L399,335L397,370Z" fill="#501531" stroke="#501531" stroke-width="1.51"/><path d="M353,505L426,434L334,472Z" fill="#42112f" stroke="#42112f" stroke-width="1.51"/><path d="M190,72L129,14L117,100Z" fill="#c22e3f" stroke="#c22e3f" stroke-width="1.51"/><path d="M221,14L214,102L311,33Z" fill="#a3253b" stroke="#a3253b" stroke-width="1.51"/><path d="M311,33L214,102L293,111Z" fill="#9a213b" stroke="#9a213b" stroke-width="1.51"/><path d="M416,151L388,95L343,142Z" fill="#7e2238" stroke="#7e2238" stroke-width="1.51"/><path d="M459,107L388,95L416,151Z" fill="#7b2437" stroke="#7b2437" stroke-width="1.51"/><path d="M242,514L236,559L288,501Z" fill="#521032" stroke="#521032" stroke-width="1.51"/><path d="M165,515L236,559L242,514Z" fill="#5b1332" stroke="#5b1332" stroke-width="1.51"/><path d="M161,563L236,559L165,515Z" fill="#611533" stroke="#611533" stroke-width="1.51"/><path d="M470,404L474,309L397,370Z" fill="#4d1430" stroke="#4d1430" stroke-width="1.51"/><path d="M-32,400L-26,437L29,455Z" fill="#a0273b" stroke="#a0273b" stroke-width="1.51"/><path d="M113,584L88,506L39,575Z" fill="#812238" stroke="#812238" stroke-width="1.51"/><path d="M113,584L161,563L88,506Z" fill="#771d37" stroke="#771d37" stroke-width="1.51"/><path d="M88,506L161,563L165,515Z" fill="#731a36" stroke="#731a36" stroke-width="1.51"/><path d="M311,33L293,111L347,106Z" fill="#8f213a" stroke="#8f213a" stroke-width="1.51"/><path d="M365,22L311,33L347,106Z" fill="#8e253a" stroke="#8e253a" stroke-width="1.51"/><path d="M470,404L484,290L474,309Z" fill="#511531" stroke="#511531" stroke-width="1.51"/><path d="M474,309L484,290L412,269Z" fill="#591732" stroke="#591732" stroke-width="1.51"/><path d="M-87,231L3,258L2,199Z" fill="#c7323e" stroke="#c7323e" stroke-width="1.51"/><path d="M-32,400L-76,406L-26,437Z" fill="#a3273b" stroke="#a3273b" stroke-width="1.51"/><path d="M192,23L129,14L190,72Z" fill="#bc2c3d" stroke="#bc2c3d" stroke-width="1.51"/><path d="M186,-14L129,14L192,23Z" fill="#c02f3e" stroke="#c02f3e" stroke-width="1.51"/><path d="M426,434L470,404L397,370Z" fill="#47132f" stroke="#47132f" stroke-width="1.51"/><path d="M476,514L458,428L426,434Z" fill="#3e112f" stroke="#3e112f" stroke-width="1.51"/><path d="M458,428L470,404L426,434Z" fill="#44122f" stroke="#44122f" stroke-width="1.51"/><path d="M-77,262L-84,333L6,331Z" fill="#b42b3c" stroke="#b42b3c" stroke-width="1.51"/><path d="M-72,155L-87,231L2,199Z" fill="#cf353f" stroke="#cf353f" stroke-width="1.51"/><path d="M54,81L-4,85L4,129Z" fill="#dd3b41" stroke="#dd3b41" stroke-width="1.51"/><path d="M38,46L-4,85L54,81Z" fill="#df3c41" stroke="#df3c41" stroke-width="1.51"/><path d="M129,14L38,46L54,81Z" fill="#d93841" stroke="#d93841" stroke-width="1.51"/><path d="M-77,262L-87,231L-84,333Z" fill="#bb2e3d" stroke="#bb2e3d" stroke-width="1.51"/><path d="M-72,155L2,199L4,129Z" fill="#d83840" stroke="#d83840" stroke-width="1.51"/><path d="M236,559L305,572L288,501Z" fill="#4b1030" stroke="#4b1030" stroke-width="1.51"/><path d="M353,505L403,519L426,434Z" fill="#3c122e" stroke="#3c122e" stroke-width="1.51"/><path d="M239,619L305,572L236,559Z" fill="#4b1330" stroke="#4b1330" stroke-width="1.51"/><path d="M346,580L403,519L353,505Z" fill="#3b122e" stroke="#3b122e" stroke-width="1.51"/><path d="M-84,333L-76,406L-32,400Z" fill="#a9293b" stroke="#a9293b" stroke-width="1.51"/><path d="M39,575L88,506L70,498Z" fill="#872239" stroke="#872239" stroke-width="1.51"/><path d="M388,95L365,22L347,106Z" fill="#872538" stroke="#872538" stroke-width="1.51"/><path d="M457,217L471,145L416,151Z" fill="#732036" stroke="#732036" stroke-width="1.51"/><path d="M484,290L471,145L457,217Z" fill="#691d34" stroke="#691d34" stroke-width="1.51"/><path d="M129,14L71,-9L38,46Z" fill="#dc3a41" stroke="#dc3a41" stroke-width="1.51"/><path d="M221,14L186,-14L192,23Z" fill="#b52b3c" stroke="#b52b3c" stroke-width="1.51"/><path d="M235,-35L186,-14L221,14Z" fill="#b22b3b" stroke="#b22b3b" stroke-width="1.51"/><path d="M161,563L239,619L236,559Z" fill="#561532" stroke="#561532" stroke-width="1.51"/><path d="M-25,513L29,455L-26,437Z" fill="#9b273a" stroke="#9b273a" stroke-width="1.51"/><path d="M-80,93L-72,155L4,129Z" fill="#dd3b41" stroke="#dd3b41" stroke-width="1.51"/><path d="M405,44L365,22L388,95Z" fill="#862738" stroke="#862738" stroke-width="1.51"/><path d="M311,33L267,-19L221,14Z" fill="#a4273b" stroke="#a4273b" stroke-width="1.51"/><path d="M471,145L459,107L416,151Z" fill="#7a2337" stroke="#7a2337" stroke-width="1.51"/><path d="M364,-26L267,-19L311,33Z" fill="#9a273a" stroke="#9a273a" stroke-width="1.51"/><path d="M459,107L405,44L388,95Z" fill="#802737" stroke="#802737" stroke-width="1.51"/><path d="M-79,455L-25,513L-26,437Z" fill="#9b273a" stroke="#9b273a" stroke-width="1.51"/><path d="M305,572L346,580L353,505Z" fill="#3f122f" stroke="#3f122f" stroke-width="1.51"/><path d="M349,614L346,580L305,572Z" fill="#3b122e" stroke="#3b122e" stroke-width="1.51"/><path d="M-84,333L-79,455L-76,406Z" fill="#a5283b" stroke="#a5283b" stroke-width="1.51"/><path d="M-76,406L-79,455L-26,437Z" fill="#9f273b" stroke="#9f273b" stroke-width="1.51"/><path d="M267,-19L235,-35L221,14Z" fill="#ac293b" stroke="#ac293b" stroke-width="1.51"/><path d="M186,-14L113,-24L129,14Z" fill="#cb333e" stroke="#cb333e" stroke-width="1.51"/><path d="M241,-69L235,-35L267,-19Z" fill="#aa293b" stroke="#aa293b" stroke-width="1.51"/><path d="M182,-107L113,-24L186,-14Z" fill="#c4313e" stroke="#c4313e" stroke-width="1.51"/><path d="M-31,14L-80,93L-4,85Z" fill="#e54041" stroke="#e54041" stroke-width="1.51"/><path d="M113,-24L71,-9L129,14Z" fill="#d93841" stroke="#d93841" stroke-width="1.51"/><path d="M-4,85L-80,93L4,129Z" fill="#e03d41" stroke="#e03d41" stroke-width="1.51"/><path d="M-25,513L39,575L70,498Z" fill="#8e2639" stroke="#8e2639" stroke-width="1.51"/><path d="M159,637L161,563L113,584Z" fill="#691d34" stroke="#691d34" stroke-width="1.51"/><path d="M159,637L239,619L161,563Z" fill="#5b1832" stroke="#5b1832" stroke-width="1.51"/><path d="M403,519L476,514L426,434Z" fill="#3b122e" stroke="#3b122e" stroke-width="1.51"/><path d="M458,428L476,514L470,404Z" fill="#3f112f" stroke="#3f112f" stroke-width="1.51"/><path d="M346,580L418,559L403,519Z" fill="#35142d" stroke="#35142d" stroke-width="1.51"/><path d="M349,614L418,559L346,580Z" fill="#35142d" stroke="#35142d" stroke-width="1.51"/><path d="M-31,14L-4,85L38,46Z" fill="#e74141" stroke="#e74141" stroke-width="1.51"/><path d="M-72,155L-80,93L-87,231Z" fill="#d83840" stroke="#d83840" stroke-width="1.51"/><path d="M-79,455L-67,509L-25,513Z" fill="#972839" stroke="#972839" stroke-width="1.51"/><path d="M-25,513L-16,567L39,575Z" fill="#902a38" stroke="#902a38" stroke-width="1.51"/><path d="M94,641L159,637L113,584Z" fill="#701f36" stroke="#701f36" stroke-width="1.51"/><path d="M418,559L476,514L403,519Z" fill="#36132d" stroke="#36132d" stroke-width="1.51"/><path d="M470,404L476,514L484,290Z" fill="#47132f" stroke="#47132f" stroke-width="1.51"/><path d="M39,575L94,641L113,584Z" fill="#7b2437" stroke="#7b2437" stroke-width="1.51"/><path d="M-82,548L-16,567L-25,513Z" fill="#912a38" stroke="#912a38" stroke-width="1.51"/><path d="M282,650L349,614L305,572Z" fill="#3d122e" stroke="#3d122e" stroke-width="1.51"/><path d="M418,559L466,579L476,514Z" fill="#33132d" stroke="#33132d" stroke-width="1.51"/><path d="M282,650L305,572L239,619Z" fill="#45122f" stroke="#45122f" stroke-width="1.51"/><path d="M365,22L364,-26L311,33Z" fill="#922839" stroke="#922839" stroke-width="1.51"/><path d="M390,-34L364,-26L365,22Z" fill="#8f2b38" stroke="#8f2b38" stroke-width="1.51"/><path d="M390,-34L365,22L405,44Z" fill="#8b2b38" stroke="#8b2b38" stroke-width="1.51"/><path d="M235,-35L241,-69L186,-14Z" fill="#b02b3b" stroke="#b02b3b" stroke-width="1.51"/><path d="M296,-79L241,-69L267,-19Z" fill="#a5283b" stroke="#a5283b" stroke-width="1.51"/><path d="M5,-22L71,-9L63,-106Z" fill="#e54041" stroke="#e54041" stroke-width="1.51"/><path d="M5,-22L38,46L71,-9Z" fill="#e64041" stroke="#e64041" stroke-width="1.51"/><path d="M5,-22L-31,14L38,46Z" fill="#eb4440" stroke="#eb4440" stroke-width="1.51"/><path d="M28,613L94,641L39,575Z" fill="#802737" stroke="#802737" stroke-width="1.51"/><path d="M-16,567L28,613L39,575Z" fill="#892a38" stroke="#892a38" stroke-width="1.51"/><path d="M248,696L239,619L159,637Z" fill="#531631" stroke="#531631" stroke-width="1.51"/><path d="M248,696L282,650L239,619Z" fill="#491330" stroke="#491330" stroke-width="1.51"/><path d="M63,-106L71,-9L113,-24Z" fill="#de3b41" stroke="#de3b41" stroke-width="1.51"/><path d="M364,-26L296,-79L267,-19Z" fill="#9b273a" stroke="#9b273a" stroke-width="1.51"/><path d="M476,9L390,-34L405,44Z" fill="#892c37" stroke="#892c37" stroke-width="1.51"/><path d="M358,-92L296,-79L364,-26Z" fill="#952939" stroke="#952939" stroke-width="1.51"/><path d="M-16,567L-3,642L28,613Z" fill="#892c37" stroke="#892c37" stroke-width="1.51"/><path d="M-67,509L-82,548L-25,513Z" fill="#942939" stroke="#942939" stroke-width="1.51"/><path d="M-79,455L-82,548L-67,509Z" fill="#962939" stroke="#962939" stroke-width="1.51"/><path d="M-84,333L-82,548L-79,455Z" fill="#9d263a" stroke="#9d263a" stroke-width="1.51"/><path d="M-87,231L-82,548L-84,333Z" fill="#aa293b" stroke="#aa293b" stroke-width="1.51"/><path d="M403,647L418,559L349,614Z" fill="#2f142c" stroke="#2f142c" stroke-width="1.51"/><path d="M456,612L466,579L418,559Z" fill="#2f142c" stroke="#2f142c" stroke-width="1.51"/><path d="M490,-16L476,9L471,145Z" fill="#842937" stroke="#842937" stroke-width="1.51"/><path d="M471,145L476,9L459,107Z" fill="#7f2637" stroke="#7f2637" stroke-width="1.51"/><path d="M459,107L476,9L405,44Z" fill="#832838" stroke="#832838" stroke-width="1.51"/><path d="M296,-79L182,-107L241,-69Z" fill="#ac293c" stroke="#ac293c" stroke-width="1.51"/><path d="M241,-69L182,-107L186,-14Z" fill="#b52c3c" stroke="#b52c3c" stroke-width="1.51"/><path d="M-90,-33L-91,21L-31,14Z" fill="#ee4540" stroke="#ee4540" stroke-width="1.51"/><path d="M-31,14L-91,21L-80,93Z" fill="#e84240" stroke="#e84240" stroke-width="1.51"/><path d="M-80,93L-91,21L-87,231Z" fill="#df3c41" stroke="#df3c41" stroke-width="1.51"/><path d="M-87,231L-91,21L-82,548Z" fill="#be2e3d" stroke="#be2e3d" stroke-width="1.51"/><path d="M-90,-33L-31,14L5,-22Z" fill="#ee4540" stroke="#ee4540" stroke-width="1.51"/><path d="M94,641L120,687L159,637Z" fill="#6f1f35" stroke="#6f1f35" stroke-width="1.51"/><path d="M40,704L120,687L94,641Z" fill="#7a2337" stroke="#7a2337" stroke-width="1.51"/><path d="M40,704L94,641L28,613Z" fill="#802737" stroke="#802737" stroke-width="1.51"/><path d="M361,712L403,647L349,614Z" fill="#33142d" stroke="#33142d" stroke-width="1.51"/><path d="M159,702L248,696L159,637Z" fill="#5a1832" stroke="#5a1832" stroke-width="1.51"/><path d="M-52,645L-3,642L-16,567Z" fill="#8a2c37" stroke="#8a2c37" stroke-width="1.51"/><path d="M293,691L349,614L282,650Z" fill="#3e122f" stroke="#3e122f" stroke-width="1.51"/><path d="M403,647L456,612L418,559Z" fill="#2d142c" stroke="#2d142c" stroke-width="1.51"/><path d="M248,696L293,691L282,650Z" fill="#45122f" stroke="#45122f" stroke-width="1.51"/><path d="M182,-107L117,-111L113,-24Z" fill="#cd343f" stroke="#cd343f" stroke-width="1.51"/><path d="M296,-79L358,-92L182,-107Z" fill="#a2273b" stroke="#a2273b" stroke-width="1.51"/><path d="M390,-34L358,-92L364,-26Z" fill="#8f2b38" stroke="#8f2b38" stroke-width="1.51"/><path d="M412,-93L358,-92L390,-34Z" fill="#8c2c38" stroke="#8c2c38" stroke-width="1.51"/><path d="M120,687L159,702L159,637Z" fill="#681c34" stroke="#681c34" stroke-width="1.51"/><path d="M40,704L159,702L120,687Z" fill="#752136" stroke="#752136" stroke-width="1.51"/><path d="M476,9L490,-16L390,-34Z" fill="#8a2c37" stroke="#8a2c37" stroke-width="1.51"/><path d="M484,290L490,-16L471,145Z" fill="#792237" stroke="#792237" stroke-width="1.51"/><path d="M117,-111L63,-106L113,-24Z" fill="#db3941" stroke="#db3941" stroke-width="1.51"/><path d="M63,-106L-12,-87L5,-22Z" fill="#ea4340" stroke="#ea4340" stroke-width="1.51"/><path d="M490,-16L412,-93L390,-34Z" fill="#8a2c37" stroke="#8a2c37" stroke-width="1.51"/><path d="M358,-92L460,-110L182,-107Z" fill="#962839" stroke="#962839" stroke-width="1.51"/><path d="M182,-107L460,-110L117,-111Z" fill="#a9293b" stroke="#a9293b" stroke-width="1.51"/><path d="M-3,642L40,704L28,613Z" fill="#862a37" stroke="#862a37" stroke-width="1.51"/><path d="M-82,548L-52,645L-16,567Z" fill="#8b2c38" stroke="#8b2c38" stroke-width="1.51"/><path d="M-68,-87L-90,-33L5,-22Z" fill="#ee4540" stroke="#ee4540" stroke-width="1.51"/><path d="M-20,675L40,704L-3,642Z" fill="#892c37" stroke="#892c37" stroke-width="1.51"/><path d="M-52,645L-20,675L-3,642Z" fill="#8a2c37" stroke="#8a2c37" stroke-width="1.51"/><path d="M248,696L361,712L293,691Z" fill="#3f112f" stroke="#3f112f" stroke-width="1.51"/><path d="M293,691L361,712L349,614Z" fill="#39132e" stroke="#39132e" stroke-width="1.51"/><path d="M403,647L491,684L456,612Z" fill="#2d142c" stroke="#2d142c" stroke-width="1.51"/><path d="M159,702L361,712L248,696Z" fill="#491330" stroke="#491330" stroke-width="1.51"/><path d="M40,704L361,712L159,702Z" fill="#5b1832" stroke="#5b1832" stroke-width="1.51"/><path d="M361,712L411,706L403,647Z" fill="#2f142c" stroke="#2f142c" stroke-width="1.51"/><path d="M-12,-87L-68,-87L5,-22Z" fill="#ee4540" stroke="#ee4540" stroke-width="1.51"/><path d="M63,-106L-68,-87L-12,-87Z" fill="#ee4540" stroke="#ee4540" stroke-width="1.51"/><path d="M490,-16L460,-110L412,-93Z" fill="#8a2c37" stroke="#8a2c37" stroke-width="1.51"/><path d="M412,-93L460,-110L358,-92Z" fill="#8a2c37" stroke="#8a2c37" stroke-width="1.51"/><path d="M-52,645L-53,696L-20,675Z" fill="#8a2c37" stroke="#8a2c37" stroke-width="1.51"/><path d="M-20,675L-53,696L40,704Z" fill="#8a2c37" stroke="#8a2c37" stroke-width="1.51"/><path d="M-82,548L-53,696L-52,645Z" fill="#8a2c37" stroke="#8a2c37" stroke-width="1.51"/><path d="M411,706L491,684L403,647Z" fill="#2d142c" stroke="#2d142c" stroke-width="1.51"/><path d="M456,612L491,684L466,579Z" fill="#2d142c" stroke="#2d142c" stroke-width="1.51"/><path d="M466,579L491,684L476,514Z" fill="#2e142c" stroke="#2e142c" stroke-width="1.51"/><path d="M476,514L491,684L484,290Z" fill="#3a122e" stroke="#3a122e" stroke-width="1.51"/><path d="M484,290L491,684L490,-16Z" fill="#531631" stroke="#531631" stroke-width="1.51"/></svg>