<svg xmlns="http://www.w3.org/2000/svg" width="3840" height="1920"><path d="M1867,858L2147,612L1808,626Z" fill="#921939" stroke="#921939" stroke-width="1.51"/><path d="M1867,858L2223,812L2147,612Z" fill="#8a1738" stroke="#8a1738" stroke-width="1.51"/><path d="M2223,812L2311,553L2147,612Z" fill="#8e1939" stroke="#8e1939" stroke-width="1.51"/><path d="M2147,612L1898,181L1808,626Z" fill="#a21f3c" stroke="#a21f3c" stroke-width="1.51"/><path d="M2268,161L1898,181L2147,612Z" fill="#a4233b" stroke="#a4233b" stroke-width="1.51"/><path d="M2311,553L2268,161L2147,612Z" fill="#9c1f3b" stroke="#9c1f3b" stroke-width="1.51"/><path d="M2241,1478L2506,1089L2223,812Z" fill="#6e0f35" stroke="#6e0f35" stroke-width="1.51"/><path d="M2223,812L2506,1089L2311,553Z" fill="#7f1437" stroke="#7f1437" stroke-width="1.51"/><path d="M2311,553L2635,83L2268,161Z" fill="#9f223b" stroke="#9f223b" stroke-width="1.51"/><path d="M1867,858L2241,1478L2223,812Z" fill="#771135" stroke="#771135" stroke-width="1.51"/><path d="M1808,626L1328,1101L1867,858Z" fill="#901838" stroke="#901838" stroke-width="1.51"/><path d="M1215,578L1328,1101L1808,626Z" fill="#9f1e3c" stroke="#9f1e3c" stroke-width="1.51"/><path d="M1365,178L1215,578L1808,626Z" fill="#b5263e" stroke="#b5263e" stroke-width="1.51"/><path d="M1328,1101L1768,1457L1867,858Z" fill="#801437" stroke="#801437" stroke-width="1.51"/><path d="M1898,181L1365,178L1808,626Z" fill="#b2263d" stroke="#b2263d" stroke-width="1.51"/><path d="M1887,-111L1365,178L1898,181Z" fill="#ba2c3c" stroke="#ba2c3c" stroke-width="1.51"/><path d="M1768,1457L2241,1478L1867,858Z" fill="#701035" stroke="#701035" stroke-width="1.51"/><path d="M2268,161L1887,-111L1898,181Z" fill="#b0293c" stroke="#b0293c" stroke-width="1.51"/><path d="M2506,1089L2749,1021L2311,553Z" fill="#761236" stroke="#761236" stroke-width="1.51"/><path d="M2374,1490L2749,1021L2506,1089Z" fill="#640d34" stroke="#640d34" stroke-width="1.51"/><path d="M2268,161L2282,-84L1887,-111Z" fill="#b02b3b" stroke="#b02b3b" stroke-width="1.51"/><path d="M2635,83L2282,-84L2268,161Z" fill="#a8273b" stroke="#a8273b" stroke-width="1.51"/><path d="M2241,1478L2374,1490L2506,1089Z" fill="#610d34" stroke="#610d34" stroke-width="1.51"/><path d="M2333,1935L2374,1490L2241,1478Z" fill="#571032" stroke="#571032" stroke-width="1.51"/><path d="M2907,730L2635,83L2311,553Z" fill="#921c3a" stroke="#921c3a" stroke-width="1.51"/><path d="M2749,1021L2907,730L2311,553Z" fill="#7c1437" stroke="#7c1437" stroke-width="1.51"/><path d="M1328,1101L1324,1361L1768,1457Z" fill="#7e1537" stroke="#7e1537" stroke-width="1.51"/><path d="M1150,1278L1324,1361L1328,1101Z" fill="#891839" stroke="#891839" stroke-width="1.51"/><path d="M1215,578L1036,730L1328,1101Z" fill="#a6203c" stroke="#a6203c" stroke-width="1.51"/><path d="M690,669L1036,730L778,174Z" fill="#c62c41" stroke="#c62c41" stroke-width="1.51"/><path d="M2635,83L2440,-165L2282,-84Z" fill="#a8293b" stroke="#a8293b" stroke-width="1.51"/><path d="M2282,-84L1797,-442L1887,-111Z" fill="#b42b3c" stroke="#b42b3c" stroke-width="1.51"/><path d="M841,1122L1150,1278L1328,1101Z" fill="#931b3a" stroke="#931b3a" stroke-width="1.51"/><path d="M1768,1457L2027,1753L2241,1478Z" fill="#611033" stroke="#611033" stroke-width="1.51"/><path d="M1563,1891L2027,1753L1768,1457Z" fill="#641534" stroke="#641534" stroke-width="1.51"/><path d="M1409,1687L1768,1457L1324,1361Z" fill="#741536" stroke="#741536" stroke-width="1.51"/><path d="M1887,-111L1511,-300L1365,178Z" fill="#c2303e" stroke="#c2303e" stroke-width="1.51"/><path d="M1365,178L778,174L1215,578Z" fill="#c82f40" stroke="#c82f40" stroke-width="1.51"/><path d="M1797,-442L1511,-300L1887,-111Z" fill="#bd2e3d" stroke="#bd2e3d" stroke-width="1.51"/><path d="M2907,730L2913,91L2635,83Z" fill="#931f3a" stroke="#931f3a" stroke-width="1.51"/><path d="M2635,83L2786,-308L2440,-165Z" fill="#a4273b" stroke="#a4273b" stroke-width="1.51"/><path d="M1024,1624L1409,1687L1324,1361Z" fill="#7b1938" stroke="#7b1938" stroke-width="1.51"/><path d="M2355,-581L1797,-442L2282,-84Z" fill="#b02b3b" stroke="#b02b3b" stroke-width="1.51"/><path d="M1797,-442L1533,-412L1511,-300Z" fill="#c1303e" stroke="#c1303e" stroke-width="1.51"/><path d="M1511,-300L1101,-197L1365,178Z" fill="#cc343f" stroke="#cc343f" stroke-width="1.51"/><path d="M1036,730L841,1122L1328,1101Z" fill="#9e1e3b" stroke="#9e1e3b" stroke-width="1.51"/><path d="M1150,1278L1024,1624L1324,1361Z" fill="#841839" stroke="#841839" stroke-width="1.51"/><path d="M690,669L841,1122L1036,730Z" fill="#ae243d" stroke="#ae243d" stroke-width="1.51"/><path d="M1526,2151L1563,1891L1409,1687Z" fill="#651b34" stroke="#651b34" stroke-width="1.51"/><path d="M1409,1687L1563,1891L1768,1457Z" fill="#6b1735" stroke="#6b1735" stroke-width="1.51"/><path d="M1533,-412L1101,-197L1511,-300Z" fill="#ca333e" stroke="#ca333e" stroke-width="1.51"/><path d="M3053,1530L3075,1484L2749,1021Z" fill="#540c32" stroke="#540c32" stroke-width="1.51"/><path d="M2749,1021L3332,904L2907,730Z" fill="#6c1135" stroke="#6c1135" stroke-width="1.51"/><path d="M2333,1935L2637,1790L2374,1490Z" fill="#501131" stroke="#501131" stroke-width="1.51"/><path d="M2333,1935L2241,1478L2027,1753Z" fill="#571232" stroke="#571232" stroke-width="1.51"/><path d="M1638,2196L2191,1956L2027,1753Z" fill="#551631" stroke="#551631" stroke-width="1.51"/><path d="M2191,1956L2333,1935L2027,1753Z" fill="#511531" stroke="#511531" stroke-width="1.51"/><path d="M778,174L1036,730L1215,578Z" fill="#c42b40" stroke="#c42b40" stroke-width="1.51"/><path d="M2440,-165L2355,-581L2282,-84Z" fill="#aa293b" stroke="#aa293b" stroke-width="1.51"/><path d="M2913,91L2786,-308L2635,83Z" fill="#9f273a" stroke="#9f273a" stroke-width="1.51"/><path d="M1101,-197L778,174L1365,178Z" fill="#d43640" stroke="#d43640" stroke-width="1.51"/><path d="M841,1122L1024,1624L1150,1278Z" fill="#8e1b3a" stroke="#8e1b3a" stroke-width="1.51"/><path d="M2786,-308L2355,-581L2440,-165Z" fill="#a6283b" stroke="#a6283b" stroke-width="1.51"/><path d="M1797,-442L1935,-751L1533,-412Z" fill="#bc2e3d" stroke="#bc2e3d" stroke-width="1.51"/><path d="M3053,1530L2749,1021L2374,1490Z" fill="#590c33" stroke="#590c33" stroke-width="1.51"/><path d="M3352,217L3192,-28L2913,91Z" fill="#942639" stroke="#942639" stroke-width="1.51"/><path d="M2637,1790L3053,1530L2374,1490Z" fill="#4f0f32" stroke="#4f0f32" stroke-width="1.51"/><path d="M3075,1484L3332,904L2749,1021Z" fill="#5d0f33" stroke="#5d0f33" stroke-width="1.51"/><path d="M2913,91L3192,-28L2786,-308Z" fill="#9b273a" stroke="#9b273a" stroke-width="1.51"/><path d="M2992,2196L2712,1883L2482,2643Z" fill="#43122f" stroke="#43122f" stroke-width="1.51"/><path d="M2333,1935L2712,1883L2637,1790Z" fill="#491330" stroke="#491330" stroke-width="1.51"/><path d="M2637,1790L2712,1883L3053,1530Z" fill="#481030" stroke="#481030" stroke-width="1.51"/><path d="M3352,217L2913,91L2907,730Z" fill="#8c1f3a" stroke="#8c1f3a" stroke-width="1.51"/><path d="M841,1122L523,1533L1024,1624Z" fill="#8e1c3a" stroke="#8e1c3a" stroke-width="1.51"/><path d="M690,669L542,886L841,1122Z" fill="#ad243d" stroke="#ad243d" stroke-width="1.51"/><path d="M11,410L542,886L690,669Z" fill="#c52f3f" stroke="#c52f3f" stroke-width="1.51"/><path d="M3449,631L3352,217L2907,730Z" fill="#801d38" stroke="#801d38" stroke-width="1.51"/><path d="M1533,-412L775,-492L1101,-197Z" fill="#d43640" stroke="#d43640" stroke-width="1.51"/><path d="M2355,-581L1935,-751L1797,-442Z" fill="#b32b3c" stroke="#b32b3c" stroke-width="1.51"/><path d="M3332,904L3449,631L2907,730Z" fill="#701736" stroke="#701736" stroke-width="1.51"/><path d="M778,174L606,182L690,669Z" fill="#d23341" stroke="#d23341" stroke-width="1.51"/><path d="M431,-162L606,182L778,174Z" fill="#df3c41" stroke="#df3c41" stroke-width="1.51"/><path d="M1563,1891L1638,2196L2027,1753Z" fill="#5c1932" stroke="#5c1932" stroke-width="1.51"/><path d="M2482,2643L2712,1883L2333,1935Z" fill="#481330" stroke="#481330" stroke-width="1.51"/><path d="M792,2021L1526,2151L1409,1687Z" fill="#6e1e35" stroke="#6e1e35" stroke-width="1.51"/><path d="M1526,2151L1638,2196L1563,1891Z" fill="#621a33" stroke="#621a33" stroke-width="1.51"/><path d="M3449,631L3525,627L3352,217Z" fill="#7e1f38" stroke="#7e1f38" stroke-width="1.51"/><path d="M3332,904L3525,627L3449,631Z" fill="#6e1936" stroke="#6e1936" stroke-width="1.51"/><path d="M3572,1103L3525,627L3332,904Z" fill="#631633" stroke="#631633" stroke-width="1.51"/><path d="M3572,1103L3332,904L3556,1375Z" fill="#541232" stroke="#541232" stroke-width="1.51"/><path d="M3556,1375L3332,904L3075,1484Z" fill="#521032" stroke="#521032" stroke-width="1.51"/><path d="M3258,1756L3075,1484L3053,1530Z" fill="#470f30" stroke="#470f30" stroke-width="1.51"/><path d="M2712,1883L3258,1756L3053,1530Z" fill="#44102f" stroke="#44102f" stroke-width="1.51"/><path d="M2992,2196L3258,1756L2712,1883Z" fill="#3d122e" stroke="#3d122e" stroke-width="1.51"/><path d="M1024,1624L792,2021L1409,1687Z" fill="#791f37" stroke="#791f37" stroke-width="1.51"/><path d="M542,886L523,1533L841,1122Z" fill="#9e213b" stroke="#9e213b" stroke-width="1.51"/><path d="M523,1533L579,1626L1024,1624Z" fill="#892039" stroke="#892039" stroke-width="1.51"/><path d="M3192,-28L3222,-438L2786,-308Z" fill="#99283a" stroke="#99283a" stroke-width="1.51"/><path d="M2786,-308L2904,-752L2355,-581Z" fill="#a2273b" stroke="#a2273b" stroke-width="1.51"/><path d="M2355,-581L2904,-752L1935,-751Z" fill="#a9293b" stroke="#a9293b" stroke-width="1.51"/><path d="M3675,-232L3222,-438L3192,-28Z" fill="#932939" stroke="#932939" stroke-width="1.51"/><path d="M3675,-232L3192,-28L3352,217Z" fill="#922a39" stroke="#922a39" stroke-width="1.51"/><path d="M1101,-197L622,-438L778,174Z" fill="#dd3a41" stroke="#dd3a41" stroke-width="1.51"/><path d="M1935,-751L775,-492L1533,-412Z" fill="#c9333e" stroke="#c9333e" stroke-width="1.51"/><path d="M3258,1756L3556,1375L3075,1484Z" fill="#461030" stroke="#461030" stroke-width="1.51"/><path d="M3222,-438L2904,-752L2786,-308Z" fill="#9b273a" stroke="#9b273a" stroke-width="1.51"/><path d="M530,1971L792,2021L579,1626Z" fill="#802538" stroke="#802538" stroke-width="1.51"/><path d="M579,1626L792,2021L1024,1624Z" fill="#812138" stroke="#812138" stroke-width="1.51"/><path d="M1526,2151L1651,2573L1638,2196Z" fill="#611a33" stroke="#611a33" stroke-width="1.51"/><path d="M775,-492L622,-438L1101,-197Z" fill="#dd3a41" stroke="#dd3a41" stroke-width="1.51"/><path d="M11,410L80,1018L542,886Z" fill="#bf2e3d" stroke="#bf2e3d" stroke-width="1.51"/><path d="M622,-438L431,-162L778,174Z" fill="#e13d41" stroke="#e13d41" stroke-width="1.51"/><path d="M542,886L154,1372L523,1533Z" fill="#9e233b" stroke="#9e233b" stroke-width="1.51"/><path d="M3258,1756L3497,1746L3556,1375Z" fill="#40112f" stroke="#40112f" stroke-width="1.51"/><path d="M2182,2511L2333,1935L2191,1956Z" fill="#4e1531" stroke="#4e1531" stroke-width="1.51"/><path d="M1638,2196L2182,2511L2191,1956Z" fill="#541631" stroke="#541631" stroke-width="1.51"/><path d="M1651,2573L2182,2511L1638,2196Z" fill="#5a1732" stroke="#5a1732" stroke-width="1.51"/><path d="M3442,1927L3497,1746L3258,1756Z" fill="#3a122e" stroke="#3a122e" stroke-width="1.51"/><path d="M3525,627L3776,139L3352,217Z" fill="#832338" stroke="#832338" stroke-width="1.51"/><path d="M4092,609L3776,139L3525,627Z" fill="#7a2237" stroke="#7a2237" stroke-width="1.51"/><path d="M3880,1157L3525,627L3572,1103Z" fill="#5a1532" stroke="#5a1532" stroke-width="1.51"/><path d="M3880,1157L3572,1103L3556,1375Z" fill="#4d1231" stroke="#4d1231" stroke-width="1.51"/><path d="M792,2021L1211,2436L1526,2151Z" fill="#701f36" stroke="#701f36" stroke-width="1.51"/><path d="M1211,2436L1651,2573L1526,2151Z" fill="#661c34" stroke="#661c34" stroke-width="1.51"/><path d="M2992,2196L3442,1927L3258,1756Z" fill="#39132e" stroke="#39132e" stroke-width="1.51"/><path d="M792,2021L1005,2579L1211,2436Z" fill="#762137" stroke="#762137" stroke-width="1.51"/><path d="M362,1846L530,1971L579,1626Z" fill="#852538" stroke="#852538" stroke-width="1.51"/><path d="M362,1846L579,1626L523,1533Z" fill="#8a2439" stroke="#8a2439" stroke-width="1.51"/><path d="M11,410L690,669L606,182Z" fill="#d43541" stroke="#d43541" stroke-width="1.51"/><path d="M3222,-438L3478,-729L2904,-752Z" fill="#962839" stroke="#962839" stroke-width="1.51"/><path d="M3776,139L3675,-232L3352,217Z" fill="#8d2a38" stroke="#8d2a38" stroke-width="1.51"/><path d="M80,1018L154,1372L542,886Z" fill="#aa273b" stroke="#aa273b" stroke-width="1.51"/><path d="M3989,1590L3556,1375L3497,1746Z" fill="#3d122e" stroke="#3d122e" stroke-width="1.51"/><path d="M3989,1590L3880,1157L3556,1375Z" fill="#43122f" stroke="#43122f" stroke-width="1.51"/><path d="M13,91L11,410L606,182Z" fill="#e03d41" stroke="#e03d41" stroke-width="1.51"/><path d="M622,-438L336,-396L431,-162Z" fill="#e43f41" stroke="#e43f41" stroke-width="1.51"/><path d="M775,-492L336,-396L622,-438Z" fill="#e23e41" stroke="#e23e41" stroke-width="1.51"/><path d="M-315,-429L336,-396L-712,-716Z" fill="#ee4540" stroke="#ee4540" stroke-width="1.51"/><path d="M154,1372L362,1846L523,1533Z" fill="#90243a" stroke="#90243a" stroke-width="1.51"/><path d="M13,91L606,182L431,-162Z" fill="#e54041" stroke="#e54041" stroke-width="1.51"/><path d="M2182,2511L2482,2643L2333,1935Z" fill="#4d1430" stroke="#4d1430" stroke-width="1.51"/><path d="M2992,2196L3574,2083L3442,1927Z" fill="#37132d" stroke="#37132d" stroke-width="1.51"/><path d="M1651,2573L2482,2643L2182,2511Z" fill="#521531" stroke="#521531" stroke-width="1.51"/><path d="M17,-324L13,91L431,-162Z" fill="#eb4340" stroke="#eb4340" stroke-width="1.51"/><path d="M3675,-232L3478,-729L3222,-438Z" fill="#922a38" stroke="#922a38" stroke-width="1.51"/><path d="M3442,1927L3574,2083L3497,1746Z" fill="#34132d" stroke="#34132d" stroke-width="1.51"/><path d="M3340,2685L3574,2083L2992,2196Z" fill="#37132d" stroke="#37132d" stroke-width="1.51"/><path d="M480,2363L792,2021L530,1971Z" fill="#7e2637" stroke="#7e2637" stroke-width="1.51"/><path d="M480,2363L1005,2579L792,2021Z" fill="#7b2437" stroke="#7b2437" stroke-width="1.51"/><path d="M1211,2436L1005,2579L1651,2573Z" fill="#6c1e35" stroke="#6c1e35" stroke-width="1.51"/><path d="M1651,2573L1005,2579L2482,2643Z" fill="#5d1932" stroke="#5d1932" stroke-width="1.51"/><path d="M4160,-160L3842,-536L3675,-232Z" fill="#8a2c37" stroke="#8a2c37" stroke-width="1.51"/><path d="M3675,-232L3842,-536L3478,-729Z" fill="#8d2b38" stroke="#8d2b38" stroke-width="1.51"/><path d="M4110,887L4092,609L3525,627Z" fill="#681c34" stroke="#681c34" stroke-width="1.51"/><path d="M4110,887L3525,627L3880,1157Z" fill="#5b1832" stroke="#5b1832" stroke-width="1.51"/><path d="M4231,1038L4110,887L3880,1157Z" fill="#531631" stroke="#531631" stroke-width="1.51"/><path d="M154,1372L-50,1505L362,1846Z" fill="#952639" stroke="#952639" stroke-width="1.51"/><path d="M163,2065L480,2363L530,1971Z" fill="#822837" stroke="#822837" stroke-width="1.51"/><path d="M80,1018L-50,1505L154,1372Z" fill="#a3273b" stroke="#a3273b" stroke-width="1.51"/><path d="M-520,1159L-50,1505L80,1018Z" fill="#a8293b" stroke="#a8293b" stroke-width="1.51"/><path d="M-381,821L80,1018L11,410Z" fill="#c6323e" stroke="#c6323e" stroke-width="1.51"/><path d="M3574,2083L3989,1590L3497,1746Z" fill="#35132d" stroke="#35132d" stroke-width="1.51"/><path d="M336,-396L17,-324L431,-162Z" fill="#e84240" stroke="#e84240" stroke-width="1.51"/><path d="M13,91L-222,423L11,410Z" fill="#e13d41" stroke="#e13d41" stroke-width="1.51"/><path d="M-248,93L-222,423L13,91Z" fill="#e54041" stroke="#e54041" stroke-width="1.51"/><path d="M48,2577L3014,2678L2482,2643Z" fill="#591732" stroke="#591732" stroke-width="1.51"/><path d="M2482,2643L3014,2678L2992,2196Z" fill="#40112f" stroke="#40112f" stroke-width="1.51"/><path d="M163,2065L530,1971L362,1846Z" fill="#832838" stroke="#832838" stroke-width="1.51"/><path d="M4160,-160L3675,-232L3776,139Z" fill="#8a2c37" stroke="#8a2c37" stroke-width="1.51"/><path d="M4092,609L4155,145L3776,139Z" fill="#7f2637" stroke="#7f2637" stroke-width="1.51"/><path d="M4308,91L4155,145L4543,402Z" fill="#822737" stroke="#822737" stroke-width="1.51"/><path d="M-50,1505L163,2065L362,1846Z" fill="#8c2938" stroke="#8c2938" stroke-width="1.51"/><path d="M4110,887L4543,402L4092,609Z" fill="#6d1e35" stroke="#6d1e35" stroke-width="1.51"/><path d="M4313,1388L4231,1038L3880,1157Z" fill="#4b1430" stroke="#4b1430" stroke-width="1.51"/><path d="M17,-324L-196,-4L13,91Z" fill="#ee4540" stroke="#ee4540" stroke-width="1.51"/><path d="M-196,-4L-248,93L13,91Z" fill="#eb4440" stroke="#eb4440" stroke-width="1.51"/><path d="M4155,145L4160,-160L3776,139Z" fill="#882b37" stroke="#882b37" stroke-width="1.51"/><path d="M4308,91L4160,-160L4155,145Z" fill="#892c37" stroke="#892c37" stroke-width="1.51"/><path d="M-50,1505L-281,1694L163,2065Z" fill="#902a38" stroke="#902a38" stroke-width="1.51"/><path d="M-222,423L-381,821L11,410Z" fill="#d53740" stroke="#d53740" stroke-width="1.51"/><path d="M-443,397L-381,821L-222,423Z" fill="#d53740" stroke="#d53740" stroke-width="1.51"/><path d="M3014,2678L3340,2685L2992,2196Z" fill="#3b122e" stroke="#3b122e" stroke-width="1.51"/><path d="M4216,1963L4313,1388L3989,1590Z" fill="#38132d" stroke="#38132d" stroke-width="1.51"/><path d="M4543,402L4155,145L4092,609Z" fill="#7b2437" stroke="#7b2437" stroke-width="1.51"/><path d="M-381,821L-421,939L80,1018Z" fill="#b82d3c" stroke="#b82d3c" stroke-width="1.51"/><path d="M-443,397L-421,939L-381,821Z" fill="#c8323e" stroke="#c8323e" stroke-width="1.51"/><path d="M4231,1038L4543,402L4110,887Z" fill="#631b33" stroke="#631b33" stroke-width="1.51"/><path d="M3989,1590L4313,1388L3880,1157Z" fill="#42122f" stroke="#42122f" stroke-width="1.51"/><path d="M4216,1963L3989,1590L3574,2083Z" fill="#2f142c" stroke="#2f142c" stroke-width="1.51"/><path d="M-248,93L-443,397L-222,423Z" fill="#e13d41" stroke="#e13d41" stroke-width="1.51"/><path d="M-552,62L-443,397L-248,93Z" fill="#e64141" stroke="#e64141" stroke-width="1.51"/><path d="M-508,1620L-281,1694L-50,1505Z" fill="#962939" stroke="#962939" stroke-width="1.51"/><path d="M163,2065L48,2577L480,2363Z" fill="#862a37" stroke="#862a37" stroke-width="1.51"/><path d="M3340,2685L3810,2364L3574,2083Z" fill="#32142d" stroke="#32142d" stroke-width="1.51"/><path d="M4308,91L4289,-354L4160,-160Z" fill="#8a2c37" stroke="#8a2c37" stroke-width="1.51"/><path d="M4160,-160L4289,-354L3842,-536Z" fill="#8a2c37" stroke="#8a2c37" stroke-width="1.51"/><path d="M3842,-536L4384,-767L3478,-729Z" fill="#8a2c37" stroke="#8a2c37" stroke-width="1.51"/><path d="M-421,939L-520,1159L80,1018Z" fill="#b12b3b" stroke="#b12b3b" stroke-width="1.51"/><path d="M-443,397L-520,1159L-421,939Z" fill="#bf2f3d" stroke="#bf2f3d" stroke-width="1.51"/><path d="M-712,-716L336,-396L775,-492Z" fill="#eb4440" stroke="#eb4440" stroke-width="1.51"/><path d="M336,-396L-315,-429L17,-324Z" fill="#ed4540" stroke="#ed4540" stroke-width="1.51"/><path d="M17,-324L-315,-429L-196,-4Z" fill="#ee4540" stroke="#ee4540" stroke-width="1.51"/><path d="M-196,-4L-552,62L-248,93Z" fill="#ec4440" stroke="#ec4440" stroke-width="1.51"/><path d="M3810,2364L4216,1963L3574,2083Z" fill="#2d142c" stroke="#2d142c" stroke-width="1.51"/><path d="M4308,91L4543,402L4289,-354Z" fill="#882b37" stroke="#882b37" stroke-width="1.51"/><path d="M4313,1388L4543,402L4231,1038Z" fill="#571731" stroke="#571731" stroke-width="1.51"/><path d="M4523,1889L4543,402L4313,1388Z" fill="#4a1430" stroke="#4a1430" stroke-width="1.51"/><path d="M-315,-429L-552,62L-196,-4Z" fill="#ee4540" stroke="#ee4540" stroke-width="1.51"/><path d="M-443,397L-552,62L-520,1159Z" fill="#d63740" stroke="#d63740" stroke-width="1.51"/><path d="M-520,1159L-508,1620L-50,1505Z" fill="#9d263a" stroke="#9d263a" stroke-width="1.51"/><path d="M-226,2514L48,2577L163,2065Z" fill="#8a2c37" stroke="#8a2c37" stroke-width="1.51"/><path d="M-542,2048L-508,1620L-520,1159Z" fill="#962939" stroke="#962939" stroke-width="1.51"/><path d="M-374,2105L163,2065L-281,1694Z" fill="#8a2c37" stroke="#8a2c37" stroke-width="1.51"/><path d="M480,2363L48,2577L1005,2579Z" fill="#802737" stroke="#802737" stroke-width="1.51"/><path d="M1005,2579L48,2577L2482,2643Z" fill="#701f36" stroke="#701f36" stroke-width="1.51"/><path d="M3340,2685L3995,2502L3810,2364Z" fill="#30142c" stroke="#30142c" stroke-width="1.51"/><path d="M3810,2364L4272,2240L4216,1963Z" fill="#2d142c" stroke="#2d142c" stroke-width="1.51"/><path d="M-542,2048L-374,2105L-281,1694Z" fill="#8a2c37" stroke="#8a2c37" stroke-width="1.51"/><path d="M3995,2502L4272,2240L3810,2364Z" fill="#2d142c" stroke="#2d142c" stroke-width="1.51"/><path d="M4216,1963L4523,1889L4313,1388Z" fill="#34132d" stroke="#34132d" stroke-width="1.51"/><path d="M4272,2240L4523,1889L4216,1963Z" fill="#2d142c" stroke="#2d142c" stroke-width="1.51"/><path d="M4543,402L4384,-767L4289,-354Z" fill="#8a2c37" stroke="#8a2c37" stroke-width="1.51"/><path d="M4289,-354L4384,-767L3842,-536Z" fill="#8a2c37" stroke="#8a2c37" stroke-width="1.51"/><path d="M3478,-729L4384,-767L2904,-752Z" fill="#8f2b38" stroke="#8f2b38" stroke-width="1.51"/><path d="M2904,-752L4384,-767L1935,-751Z" fill="#99283a" stroke="#99283a" stroke-width="1.51"/><path d="M-374,2105L-226,2514L163,2065Z" fill="#8a2c37" stroke="#8a2c37" stroke-width="1.51"/><path d="M-374,2105L-450,2386L-226,2514Z" fill="#8a2c37" stroke="#8a2c37" stroke-width="1.51"/><path d="M-508,1620L-542,2048L-281,1694Z" fill="#8f2b38" stroke="#8f2b38" stroke-width="1.51"/><path d="M-710,-298L-542,2048L-520,1159Z" fill="#b52c3c" stroke="#b52c3c" stroke-width="1.51"/><path d="M-552,62L-710,-298L-520,1159Z" fill="#e13d41" stroke="#e13d41" stroke-width="1.51"/><path d="M-315,-429L-710,-298L-552,62Z" fill="#ee4540" stroke="#ee4540" stroke-width="1.51"/><path d="M4272,2240L4359,2439L4523,1889Z" fill="#2d142c" stroke="#2d142c" stroke-width="1.51"/><path d="M3995,2502L4359,2439L4272,2240Z" fill="#2d142c" stroke="#2d142c" stroke-width="1.51"/><path d="M3340,2685L4359,2439L3995,2502Z" fill="#2d142c" stroke="#2d142c" stroke-width="1.51"/><path d="M-542,2048L-450,2386L-374,2105Z" fill="#8a2c37" stroke="#8a2c37" stroke-width="1.51"/><path d="M1935,-751L-712,-716L775,-492Z" fill="#e03d41" stroke="#e03d41" stroke-width="1.51"/><path d="M-315,-429L-712,-716L-710,-298Z" fill="#ee4540" stroke="#ee4540" stroke-width="1.51"/></svg>