<svg xmlns="http://www.w3.org/2000/svg" width="512" height="512"><path d="M229,292L299,328L339,288Z" fill="#711035" stroke="#711035" stroke-width="1.51"/><path d="M339,288L273,204L229,292Z" fill="#7a1236" stroke="#7a1236" stroke-width="1.51"/><path d="M299,328L338,347L339,288Z" fill="#670e34" stroke="#670e34" stroke-width="1.51"/><path d="M339,288L313,169L273,204Z" fill="#801437" stroke="#801437" stroke-width="1.51"/><path d="M273,204L194,190L229,292Z" fill="#8e1838" stroke="#8e1838" stroke-width="1.51"/><path d="M214,78L194,190L273,204Z" fill="#a31f3c" stroke="#a31f3c" stroke-width="1.51"/><path d="M194,190L161,239L229,292Z" fill="#941a39" stroke="#941a39" stroke-width="1.51"/><path d="M299,328L270,406L338,347Z" fill="#640e34" stroke="#640e34" stroke-width="1.51"/><path d="M229,292L270,406L299,328Z" fill="#6e0f35" stroke="#6e0f35" stroke-width="1.51"/><path d="M157,385L270,406L229,292Z" fill="#761236" stroke="#761236" stroke-width="1.51"/><path d="M270,406L357,420L338,347Z" fill="#5b0c33" stroke="#5b0c33" stroke-width="1.51"/><path d="M439,368L461,233L339,288Z" fill="#5d0f33" stroke="#5d0f33" stroke-width="1.51"/><path d="M161,239L157,385L229,292Z" fill="#8b1839" stroke="#8b1839" stroke-width="1.51"/><path d="M157,385L169,407L270,406Z" fill="#751536" stroke="#751536" stroke-width="1.51"/><path d="M384,526L392,467L357,420Z" fill="#461030" stroke="#461030" stroke-width="1.51"/><path d="M339,288L448,180L313,169Z" fill="#771337" stroke="#771337" stroke-width="1.51"/><path d="M439,368L339,288L338,347Z" fill="#5c0c33" stroke="#5c0c33" stroke-width="1.51"/><path d="M357,420L439,368L338,347Z" fill="#530a32" stroke="#530a32" stroke-width="1.51"/><path d="M461,233L448,180L339,288Z" fill="#6a1334" stroke="#6a1334" stroke-width="1.51"/><path d="M313,169L214,78L273,204Z" fill="#9b1d3b" stroke="#9b1d3b" stroke-width="1.51"/><path d="M448,180L347,78L313,169Z" fill="#89193a" stroke="#89193a" stroke-width="1.51"/><path d="M194,190L40,131L161,239Z" fill="#b5253f" stroke="#b5253f" stroke-width="1.51"/><path d="M347,78L214,78L313,169Z" fill="#9f203b" stroke="#9f203b" stroke-width="1.51"/><path d="M214,78L175,79L194,190Z" fill="#b6263e" stroke="#b6263e" stroke-width="1.51"/><path d="M218,496L357,420L270,406Z" fill="#5b1232" stroke="#5b1232" stroke-width="1.51"/><path d="M357,420L392,467L439,368Z" fill="#4b0e30" stroke="#4b0e30" stroke-width="1.51"/><path d="M161,239L73,349L157,385Z" fill="#951c3b" stroke="#951c3b" stroke-width="1.51"/><path d="M157,385L120,456L169,407Z" fill="#801a38" stroke="#801a38" stroke-width="1.51"/><path d="M56,269L73,349L161,239Z" fill="#a2213b" stroke="#a2213b" stroke-width="1.51"/><path d="M40,131L56,269L161,239Z" fill="#b5273e" stroke="#b5273e" stroke-width="1.51"/><path d="M169,407L218,496L270,406Z" fill="#6a1535" stroke="#6a1535" stroke-width="1.51"/><path d="M158,485L218,496L169,407Z" fill="#711a36" stroke="#711a36" stroke-width="1.51"/><path d="M73,349L120,456L157,385Z" fill="#8a1c3a" stroke="#8a1c3a" stroke-width="1.51"/><path d="M120,456L158,485L169,407Z" fill="#7b1d37" stroke="#7b1d37" stroke-width="1.51"/><path d="M448,180L468,79L347,78Z" fill="#871e39" stroke="#871e39" stroke-width="1.51"/><path d="M461,233L525,177L448,180Z" fill="#6a1a35" stroke="#6a1a35" stroke-width="1.51"/><path d="M542,222L525,177L461,233Z" fill="#631a33" stroke="#631a33" stroke-width="1.51"/><path d="M546,373L542,222L461,233Z" fill="#531531" stroke="#531531" stroke-width="1.51"/><path d="M546,373L461,233L439,368Z" fill="#4e1231" stroke="#4e1231" stroke-width="1.51"/><path d="M525,177L468,79L448,180Z" fill="#781f37" stroke="#781f37" stroke-width="1.51"/><path d="M392,467L497,435L439,368Z" fill="#44102f" stroke="#44102f" stroke-width="1.51"/><path d="M218,496L384,526L357,420Z" fill="#4f1231" stroke="#4f1231" stroke-width="1.51"/><path d="M392,467L409,536L497,435Z" fill="#3d122f" stroke="#3d122f" stroke-width="1.51"/><path d="M73,349L27,379L120,456Z" fill="#91203a" stroke="#91203a" stroke-width="1.51"/><path d="M56,269L27,379L73,349Z" fill="#9f233b" stroke="#9f233b" stroke-width="1.51"/><path d="M347,78L288,-7L214,78Z" fill="#a9263c" stroke="#a9263c" stroke-width="1.51"/><path d="M214,78L136,1L175,79Z" fill="#c52f3f" stroke="#c52f3f" stroke-width="1.51"/><path d="M380,-30L288,-7L347,78Z" fill="#a4273b" stroke="#a4273b" stroke-width="1.51"/><path d="M497,435L546,373L439,368Z" fill="#41102f" stroke="#41102f" stroke-width="1.51"/><path d="M56,269L-80,301L27,379Z" fill="#aa293b" stroke="#aa293b" stroke-width="1.51"/><path d="M175,79L40,131L194,190Z" fill="#c32b40" stroke="#c32b40" stroke-width="1.51"/><path d="M41,59L40,131L175,79Z" fill="#d33541" stroke="#d33541" stroke-width="1.51"/><path d="M384,526L409,536L392,467Z" fill="#3e122e" stroke="#3e122e" stroke-width="1.51"/><path d="M412,621L409,536L384,526Z" fill="#3d122e" stroke="#3d122e" stroke-width="1.51"/><path d="M313,590L384,526L218,496Z" fill="#4e1431" stroke="#4e1431" stroke-width="1.51"/><path d="M606,285L562,163L542,222Z" fill="#5f1933" stroke="#5f1933" stroke-width="1.51"/><path d="M542,222L562,163L525,177Z" fill="#681c34" stroke="#681c34" stroke-width="1.51"/><path d="M525,177L552,75L468,79Z" fill="#7a2337" stroke="#7a2337" stroke-width="1.51"/><path d="M179,-61L136,1L214,78Z" fill="#cc333f" stroke="#cc333f" stroke-width="1.51"/><path d="M546,373L606,285L542,222Z" fill="#4f1531" stroke="#4f1531" stroke-width="1.51"/><path d="M567,477L576,376L546,373Z" fill="#3c122e" stroke="#3c122e" stroke-width="1.51"/><path d="M567,477L546,373L497,435Z" fill="#39132e" stroke="#39132e" stroke-width="1.51"/><path d="M266,623L313,590L218,496Z" fill="#541631" stroke="#541631" stroke-width="1.51"/><path d="M120,456L75,506L158,485Z" fill="#7e2138" stroke="#7e2138" stroke-width="1.51"/><path d="M27,379L75,506L120,456Z" fill="#882339" stroke="#882339" stroke-width="1.51"/><path d="M552,75L466,13L468,79Z" fill="#842738" stroke="#842738" stroke-width="1.51"/><path d="M468,79L466,13L347,78Z" fill="#8e2339" stroke="#8e2339" stroke-width="1.51"/><path d="M288,-7L179,-61L214,78Z" fill="#be2e3d" stroke="#be2e3d" stroke-width="1.51"/><path d="M466,13L380,-30L347,78Z" fill="#98253a" stroke="#98253a" stroke-width="1.51"/><path d="M147,574L218,496L158,485Z" fill="#6c1e35" stroke="#6c1e35" stroke-width="1.51"/><path d="M576,376L606,285L546,373Z" fill="#46132f" stroke="#46132f" stroke-width="1.51"/><path d="M136,1L41,59L175,79Z" fill="#d53541" stroke="#d53541" stroke-width="1.51"/><path d="M40,131L-48,224L56,269Z" fill="#c12f3d" stroke="#c12f3d" stroke-width="1.51"/><path d="M41,59L-12,134L40,131Z" fill="#da3941" stroke="#da3941" stroke-width="1.51"/><path d="M567,477L535,481L533,607Z" fill="#2d142c" stroke="#2d142c" stroke-width="1.51"/><path d="M409,536L535,481L497,435Z" fill="#36132d" stroke="#36132d" stroke-width="1.51"/><path d="M75,506L147,574L158,485Z" fill="#782237" stroke="#782237" stroke-width="1.51"/><path d="M555,19L635,57L591,1Z" fill="#862a37" stroke="#862a37" stroke-width="1.51"/><path d="M562,163L552,75L525,177Z" fill="#752136" stroke="#752136" stroke-width="1.51"/><path d="M-12,134L-48,224L40,131Z" fill="#d0353f" stroke="#d0353f" stroke-width="1.51"/><path d="M27,379L-26,422L75,506Z" fill="#922639" stroke="#922639" stroke-width="1.51"/><path d="M-48,224L-57,251L56,269Z" fill="#b82d3c" stroke="#b82d3c" stroke-width="1.51"/><path d="M380,-30L386,-55L288,-7Z" fill="#a3273b" stroke="#a3273b" stroke-width="1.51"/><path d="M445,-62L386,-55L380,-30Z" fill="#9a273a" stroke="#9a273a" stroke-width="1.51"/><path d="M445,-62L380,-30L466,13Z" fill="#962939" stroke="#962939" stroke-width="1.51"/><path d="M-77,405L-26,422L27,379Z" fill="#9a273a" stroke="#9a273a" stroke-width="1.51"/><path d="M75,506L49,622L147,574Z" fill="#7d2537" stroke="#7d2537" stroke-width="1.51"/><path d="M214,-73L179,-61L288,-7Z" fill="#be2f3d" stroke="#be2f3d" stroke-width="1.51"/><path d="M136,1L42,-35L41,59Z" fill="#e13d41" stroke="#e13d41" stroke-width="1.51"/><path d="M535,481L567,477L497,435Z" fill="#34132d" stroke="#34132d" stroke-width="1.51"/><path d="M576,376L636,444L606,285Z" fill="#42122f" stroke="#42122f" stroke-width="1.51"/><path d="M533,607L535,481L409,536Z" fill="#30142c" stroke="#30142c" stroke-width="1.51"/><path d="M313,590L412,621L384,526Z" fill="#42122f" stroke="#42122f" stroke-width="1.51"/><path d="M147,574L266,623L218,496Z" fill="#621a33" stroke="#621a33" stroke-width="1.51"/><path d="M386,-55L214,-73L288,-7Z" fill="#ae2a3b" stroke="#ae2a3b" stroke-width="1.51"/><path d="M-62,128L-57,251L-48,224Z" fill="#c5313e" stroke="#c5313e" stroke-width="1.51"/><path d="M-62,128L-80,301L-57,251Z" fill="#be2f3d" stroke="#be2f3d" stroke-width="1.51"/><path d="M-57,251L-80,301L56,269Z" fill="#b22b3c" stroke="#b22b3c" stroke-width="1.51"/><path d="M214,-73L114,-52L179,-61Z" fill="#cf353f" stroke="#cf353f" stroke-width="1.51"/><path d="M179,-61L114,-52L136,1Z" fill="#d63740" stroke="#d63740" stroke-width="1.51"/><path d="M41,59L-18,59L-12,134Z" fill="#e03d41" stroke="#e03d41" stroke-width="1.51"/><path d="M-12,134L-62,128L-48,224Z" fill="#d1353f" stroke="#d1353f" stroke-width="1.51"/><path d="M-6,37L-18,59L41,59Z" fill="#e54041" stroke="#e54041" stroke-width="1.51"/><path d="M386,-55L477,-132L214,-73Z" fill="#a2273b" stroke="#a2273b" stroke-width="1.51"/><path d="M555,19L445,-62L466,13Z" fill="#8d2b38" stroke="#8d2b38" stroke-width="1.51"/><path d="M552,75L555,19L466,13Z" fill="#852937" stroke="#852937" stroke-width="1.51"/><path d="M555,19L552,75L635,57Z" fill="#832837" stroke="#832837" stroke-width="1.51"/><path d="M266,623L412,621L313,590Z" fill="#491330" stroke="#491330" stroke-width="1.51"/><path d="M42,-35L-6,37L41,59Z" fill="#e74040" stroke="#e74040" stroke-width="1.51"/><path d="M-18,59L-62,128L-12,134Z" fill="#dd3b41" stroke="#dd3b41" stroke-width="1.51"/><path d="M-87,52L-62,128L-18,59Z" fill="#e23e41" stroke="#e23e41" stroke-width="1.51"/><path d="M-80,301L-77,405L27,379Z" fill="#a1273b" stroke="#a1273b" stroke-width="1.51"/><path d="M-26,422L-47,515L75,506Z" fill="#8e2b38" stroke="#8e2b38" stroke-width="1.51"/><path d="M114,-52L42,-35L136,1Z" fill="#df3c41" stroke="#df3c41" stroke-width="1.51"/><path d="M567,477L636,444L576,376Z" fill="#39132e" stroke="#39132e" stroke-width="1.51"/><path d="M601,637L636,444L567,477Z" fill="#2d142c" stroke="#2d142c" stroke-width="1.51"/><path d="M-85,502L-47,515L-26,422Z" fill="#8e2b38" stroke="#8e2b38" stroke-width="1.51"/><path d="M147,574L49,622L266,623Z" fill="#711f36" stroke="#711f36" stroke-width="1.51"/><path d="M572,-94L477,-132L445,-62Z" fill="#8c2c38" stroke="#8c2c38" stroke-width="1.51"/><path d="M635,57L552,75L562,163Z" fill="#7c2437" stroke="#7c2437" stroke-width="1.51"/><path d="M635,57L562,163L606,285Z" fill="#6d1e35" stroke="#6d1e35" stroke-width="1.51"/><path d="M636,444L635,57L606,285Z" fill="#551631" stroke="#551631" stroke-width="1.51"/><path d="M412,621L533,607L409,536Z" fill="#36132d" stroke="#36132d" stroke-width="1.51"/><path d="M-13,608L49,622L75,506Z" fill="#852937" stroke="#852937" stroke-width="1.51"/><path d="M-62,128L-87,52L-80,301Z" fill="#d1363f" stroke="#d1363f" stroke-width="1.51"/><path d="M-6,37L-87,52L-18,59Z" fill="#e64141" stroke="#e64141" stroke-width="1.51"/><path d="M-33,-59L-87,52L-6,37Z" fill="#ec4440" stroke="#ec4440" stroke-width="1.51"/><path d="M-47,515L-13,608L75,506Z" fill="#892c37" stroke="#892c37" stroke-width="1.51"/><path d="M-77,405L-85,502L-26,422Z" fill="#942939" stroke="#942939" stroke-width="1.51"/><path d="M-80,301L-85,502L-77,405Z" fill="#9a273a" stroke="#9a273a" stroke-width="1.51"/><path d="M-123,-30L-85,502L-80,301Z" fill="#b52c3c" stroke="#b52c3c" stroke-width="1.51"/><path d="M-64,579L-13,608L-47,515Z" fill="#8a2c37" stroke="#8a2c37" stroke-width="1.51"/><path d="M445,-62L477,-132L386,-55Z" fill="#952939" stroke="#952939" stroke-width="1.51"/><path d="M-123,-124L-33,-59L114,-52Z" fill="#ee4540" stroke="#ee4540" stroke-width="1.51"/><path d="M572,-94L445,-62L555,19Z" fill="#8a2c37" stroke="#8a2c37" stroke-width="1.51"/><path d="M42,-35L-33,-59L-6,37Z" fill="#ee4540" stroke="#ee4540" stroke-width="1.51"/><path d="M114,-52L-33,-59L42,-35Z" fill="#e74141" stroke="#e74141" stroke-width="1.51"/><path d="M-123,-124L114,-52L214,-73Z" fill="#e33f41" stroke="#e33f41" stroke-width="1.51"/><path d="M-85,502L-64,579L-47,515Z" fill="#8a2c37" stroke="#8a2c37" stroke-width="1.51"/><path d="M591,1L572,-94L555,19Z" fill="#8a2c37" stroke="#8a2c37" stroke-width="1.51"/><path d="M635,57L572,-94L591,1Z" fill="#8a2c37" stroke="#8a2c37" stroke-width="1.51"/><path d="M533,607L601,637L567,477Z" fill="#2d142c" stroke="#2d142c" stroke-width="1.51"/><path d="M412,621L601,637L533,607Z" fill="#2d142c" stroke="#2d142c" stroke-width="1.51"/><path d="M266,623L601,637L412,621Z" fill="#39122e" stroke="#39122e" stroke-width="1.51"/><path d="M49,622L601,637L266,623Z" fill="#4e1431" stroke="#4e1431" stroke-width="1.51"/><path d="M-87,52L-123,-30L-80,301Z" fill="#dd3b41" stroke="#dd3b41" stroke-width="1.51"/><path d="M-33,-59L-123,-30L-87,52Z" fill="#ee4540" stroke="#ee4540" stroke-width="1.51"/><path d="M-33,-59L-123,-124L-123,-30Z" fill="#ee4540" stroke="#ee4540" stroke-width="1.51"/><path d="M477,-132L-123,-124L214,-73Z" fill="#c8333e" stroke="#c8333e" stroke-width="1.51"/></svg>