<svg xmlns="http://www.w3.org/2000/svg" xmlns:xlink="http://www.w3.org/1999/xlink" width="1024" height="1024" viewBox="0 0 1024 1024">
  <metadata><?xpacket begin="﻿" id="W5M0MpCehiHzreSzNTczkc9d"?>
<x:xmpmeta xmlns:x="adobe:ns:meta/" x:xmptk="Adobe XMP Core 5.6-c140 79.160451, 2017/05/06-01:08:21        ">
   <rdf:RDF xmlns:rdf="http://www.w3.org/1999/02/22-rdf-syntax-ns#">
      <rdf:Description rdf:about=""/>
   </rdf:RDF>
</x:xmpmeta>
                                                                                                    
                                                                                                    
                                                                                                    
                                                                                                    
                                                                                                    
                                                                                                    
                                                                                                    
                                                                                                    
                                                                                                    
                                                                                                    
                                                                                                    
                                                                                                    
                                                                                                    
                                                                                                    
                                                                                                    
                                                                                                    
                                                                                                    
                                                                                                    
                                                                                                    
                                                                                                    
                           
<?xpacket end="w"?></metadata>
<defs>
    <style>
      .cls-1 {
        filter: url(#filter);
      }

      .cls-2 {
        fill: #fff;
        fill-rule: evenodd;
      }

      .cls-3 {
        fill: none;
        stroke: #fff;
        stroke-width: 32px;
      }
    </style>
    <filter id="filter" filterUnits="userSpaceOnUse">
      <feGaussianBlur result="blur" stdDeviation="18" in="SourceAlpha"/>
      <feComposite result="composite"/>
      <feComposite result="composite-2"/>
      <feComposite result="composite-3"/>
      <feFlood result="flood" flood-opacity="0.16"/>
      <feComposite result="composite-4" operator="in" in2="composite-3"/>
      <feBlend result="blend" mode="multiply" in2="SourceGraphic"/>
      <feBlend result="blend-2" in="SourceGraphic"/>
      <feFlood result="flood-2"/>
      <feComposite result="composite-5" operator="in" in2="SourceGraphic"/>
      <feBlend result="blend-3" in2="blend-2"/>
    </filter>
  </defs>
  <g id="Top_Layers" data-name="Top Layers" class="cls-1">
    <path id="Color_Fill_1" data-name="Color Fill 1" class="cls-2" d="M508.621,255.993c13.266-.338,21.348,7.275,29.752,12.318l54.58,31.2c7.8,4.675,22.649,10.189,27.085,17.656,4.392,7.391.395,21.714,2.257,31.821L696.984,391.9c9.075,5.437,23.522,9.5,26.675,20.734,1.87,6.663.41,19.154,0.41,26.894V497.01c0,5.415-1.094,26.456.616,29.357,6.551,2.493,21.855,11.517,24.417,17.656,3.133,7.506,1.437,21.7,1.436,31.615V635.79c0,9.074,1.387,21.558-1.436,28.33-3.551,8.521-18.139,13.782-26.059,18.477l-54.17,31c-7.637,4.612-17.629,12.489-27.5,13.96-9.8,1.46-20.625-12.012-28.932-13.344l-78.382,45.165C526.618,763.536,522.4,768,510.673,768h-4.925c-7.487-3.481-15-8.91-22.16-13.139l-43.3-24.43L420.6,719.14c-2.663-1.578-5.665-4.341-9.029-4.927-3.08,2.7-22.576,14.159-27.9,13.344-10.092-1.544-17.787-8.175-25.444-12.729L309.177,686.7c-9.519-5.289-30.428-14.1-33.856-24.225-2.37-7-.821-19.015-0.821-27.51V576.459c0-10.124-1.772-24.739,1.436-32.436,3.87-9.282,17.126-12.9,25.034-18.272V441.375c0-11.719-1.813-27.813,3.283-34.695,4.493-6.07,16.548-10.489,23.391-14.576l51.5-29.768c4.084-2.426,21.9-10.941,23.6-13.755q0.1-4,.2-8.006c0-10.256-.7-20.032,3.694-25.662,4.541-5.823,17.252-10.541,24.007-14.576L487.9,267.284ZM511.9,291.3l-59.095,33.873q0.1,0.514.2,1.027l44.732,25.251c3.513,2.1,11.113,7.953,15.184,8.417l59.3-34.079v-0.616l-41.653-23.609C527.119,299.5,515.572,291.534,511.9,291.3Zm-76.125,62.82q-0.1,25.659-.206,51.324c0,4.413-1.028,15.406.616,18.271l45.142,25.868c2.41,1.349,13.957,8.589,14.978,7.185q-0.1-25.352-.205-50.708c0-4.389,1.016-15.209-.615-18.066Zm152.865,0-59.71,34.49v68.774l0.411,0.205,60.12-34.49V354.329ZM401.922,386.971L333.8,426.183v80.681h0.615l35.7-20.324c4.054-2.4,9.069-7.136,16.415-5.749,8.943,1.689,18.814,9.41,26.059,13.755l53.555,30.589c8.03,4.777,22.429,10,26.469,18.272,2.431,4.977,1.437,14.431,1.436,21.556v82.323c0,6.124.6,13.281-1.436,17.45-2.817,5.776-8.551,7.882-13.953,11.086l-33.241,19.3c2.408,3.127,13.615,7.857,17.647,10.265l32.625,18.682c3.868,2.295,13.031,8.906,17.236,9.649l49.245-28.536c2.841-1.684,16.618-8.142,17.236-10.471L544.939,675c-5.116-3.043-10.22-5.045-12.722-10.675-2.418-5.443-1.231-15.791-1.231-23.2V591.035c0-12.879-2.177-42.951,2.873-50.092,4.718-6.673,18.594-12.039,26.059-16.424l55.606-31.82c5.863-3.271,18.3-13.738,27.5-11.908,6.25,1.245,10.99,5.122,15.8,8.007l23.186,12.934c2.7,1.589,5.9,4.526,9.234,5.132,0.068-.274.137-0.547,0.2-0.821q-0.1-39.926-.2-79.86l-50.887-28.947C637.6,395.612,624,386.75,622.09,387.382v34.49c0,5.374.775,12.544-.821,16.629-3.657,9.361-15.8,12.987-24.007,17.86l-59.915,34.285c-5.439,3.251-18.133,13.463-26.674,11.907-9.647-1.757-17.092-8.7-24.828-12.934l-51.3-29.357c-7.213-4.291-23.537-11.126-28.11-17.04-5.753-7.438-3.49-29.2-3.489-42.29,0-3.98,1.03-10.843-.41-13.961h-0.616ZM383.866,516.1l-59.3,34.285c2.646,3.432,12.1,7.008,16.21,9.443l43.911,25.046,59.5-34.079v-0.616l-41.858-23.814C398.406,524.04,388.105,516.677,383.866,516.1Zm256.281,0-59.3,34.079V550.8l60.12,34.079L700.472,550.8v-0.616L658.2,526.162C654.27,523.831,644.41,516.736,640.147,516.1ZM307.536,579.128v49.066c0,4.966-1.238,16.643.41,20.324l44.526,25.251c2.649,1.582,13.064,8.812,15.594,8.417q-0.1-34.485-.2-68.979l-42.269-24.019C322.07,587.1,311.217,579.5,307.536,579.128Zm152.66,0-59.505,34.49q0.1,34.383.205,68.774c3.355-.345,14.931-8.239,18.262-10.265l42.064-24.02V579.128H460.2Zm103.62,0v68.979l44.526,25.457c2.7,1.631,13.383,9.033,16,8.622q-0.1-34.383-.2-68.774l-42.269-24.224C578.005,586.9,567.922,579.75,563.816,579.128Zm153.687,0c-4.2.493-10.721,6.009-14.363,8.007l-30.573,17.45c-3.343,2-13.72,6.164-15.39,9.033v68.774H658L717.5,648.107V579.128Z"/>
    <circle class="cls-3" cx="512" cy="512" r="384"/>
  </g>
</svg>
