<svg id="Top_Layers" data-name="Top Layers" xmlns="http://www.w3.org/2000/svg" width="1024" height="1024" viewBox="0 0 1024 1024">
  <metadata><?xpacket begin="﻿" id="W5M0MpCehiHzreSzNTczkc9d"?>
<x:xmpmeta xmlns:x="adobe:ns:meta/" x:xmptk="Adobe XMP Core 5.6-c140 79.160451, 2017/05/06-01:08:21        ">
   <rdf:RDF xmlns:rdf="http://www.w3.org/1999/02/22-rdf-syntax-ns#">
      <rdf:Description rdf:about=""/>
   </rdf:RDF>
</x:xmpmeta>
                                                                                                    
                                                                                                    
                                                                                                    
                                                                                                    
                                                                                                    
                                                                                                    
                                                                                                    
                                                                                                    
                                                                                                    
                                                                                                    
                                                                                                    
                                                                                                    
                                                                                                    
                                                                                                    
                                                                                                    
                                                                                                    
                                                                                                    
                                                                                                    
                                                                                                    
                                                                                                    
                           
<?xpacket end="w"?></metadata>
<defs>
    <style>
      .cls-1 {
        fill: #fff;
        fill-rule: evenodd;
      }

      .cls-2 {
        fill: none;
        stroke: #fff;
        stroke-width: 46px;
      }
    </style>
  </defs>
  <path id="Color_Fill_1" data-name="Color Fill 1" class="cls-1" d="M508.192,186.158c16.911-.431,27.213,9.274,37.927,15.7l69.575,39.779c9.945,5.958,28.871,12.988,34.527,22.506,5.6,9.422.5,27.68,2.877,40.563L748.306,359.4c11.569,6.931,29.984,12.114,34,26.431,2.384,8.493.523,24.416,0.523,34.283v73.275c0,6.9-1.394,33.725.784,37.423,8.352,3.179,27.86,14.682,31.126,22.506,3.994,9.569,1.832,27.669,1.831,40.3V670.3c0,11.567,1.767,27.481-1.831,36.114-4.527,10.861-23.122,17.568-33.218,23.553l-69.053,39.516c-9.735,5.879-22.472,15.921-35.049,17.8-12.489,1.861-26.291-15.312-36.88-17.011l-99.917,57.574c-9.492,5.3-14.863,10.991-29.818,10.991H504.53c-9.543-4.437-19.124-11.357-28.248-16.748l-55.19-31.142-25.11-14.394c-3.394-2.01-7.221-5.533-11.509-6.281-3.927,3.436-28.778,18.05-35.572,17.011-12.865-1.968-22.674-10.421-32.434-16.226L253.954,735.2c-12.134-6.742-38.789-17.971-43.158-30.881-3.021-8.925-1.047-24.239-1.046-35.067V594.669c0-12.906-2.26-31.537,1.83-41.349,4.933-11.831,21.831-16.445,31.911-23.291V422.471c0-14.939-2.31-35.453,4.185-44.227,5.729-7.738,21.1-13.37,29.818-18.58l65.652-37.947c5.206-3.092,27.922-13.947,30.08-17.534q0.13-5.1.262-10.206c0-13.073-.89-25.535,4.708-32.712,5.788-7.422,21.991-13.436,30.6-18.581l72.976-42.133Zm4.185,45.012-75.33,43.18q0.13,0.654.262,1.308l57.02,32.189c4.479,2.683,14.168,10.138,19.356,10.73l75.592-43.442V274.35l-53.1-30.1C531.773,241.617,517.053,231.463,512.377,231.17Zm-97.039,80.079q-0.132,32.709-.262,65.425c0,5.625-1.31,19.638.785,23.291L473.4,432.939c3.073,1.72,17.793,10.949,19.094,9.16q-0.13-32.318-.261-64.64c0-5.6,1.295-19.387-.785-23.029Zm194.863,0-76.114,43.966v87.669l0.523,0.261,76.638-43.965V311.511ZM372.18,353.121l-86.839,49.984V505.953h0.785l45.512-25.908c5.167-3.058,11.56-9.1,20.925-7.328,11.4,2.153,23.982,12,33.218,17.534l68.268,38.993c10.237,6.089,28.592,12.747,33.741,23.291,3.1,6.345,1.832,18.4,1.831,27.479V684.955c0,7.806.762,16.929-1.831,22.244-3.59,7.363-10.9,10.047-17.786,14.132l-42.373,24.6c3.069,3.986,17.355,10.016,22.494,13.085l41.589,23.815c4.931,2.926,16.611,11.353,21.971,12.3l62.775-36.376c3.622-2.146,21.183-10.379,21.971-13.347l-43.942-25.123c-6.522-3.879-13.028-6.431-16.217-13.608-3.083-6.939-1.57-20.129-1.57-29.572V613.249c0-16.418-2.774-54.752,3.662-63.854,6.015-8.506,23.7-15.347,33.219-20.936L644.466,487.9c7.474-4.17,23.325-17.512,35.05-15.179,7.967,1.586,14.008,6.529,20.14,10.207l29.556,16.487c3.441,2.025,7.518,5.769,11.771,6.542l0.261-1.047q-0.13-50.9-.261-101.8l-64.868-36.9c-3.5-2.07-20.842-13.367-23.279-12.561V397.61c0,6.851.988,15.991-1.046,21.2-4.662,11.934-20.136,16.556-30.6,22.768l-76.376,43.7c-6.933,4.144-23.115,17.162-34,15.178-12.3-2.24-21.788-11.09-31.649-16.487l-65.391-37.423c-9.2-5.469-30-14.183-35.834-21.721-7.333-9.481-4.448-37.226-4.446-53.909,0-5.074,1.312-13.822-.524-17.8H372.18ZM349.162,517.729l-75.591,43.7c3.373,4.375,15.424,8.934,20.663,12.038L350.209,605.4l75.853-43.442v-0.785L372.7,530.814C367.7,527.848,354.566,518.461,349.162,517.729Zm326.692,0-75.592,43.442v0.785L676.9,605.4l75.853-43.442v-0.785l-53.882-30.618C693.857,527.581,681.288,518.538,675.854,517.729ZM251.861,598.071v62.546c0,6.33-1.578,21.216.523,25.908l56.759,32.189c3.378,2.016,16.653,11.232,19.879,10.729q-0.13-43.961-.262-87.93l-53.881-30.619C270.389,608.226,256.553,598.539,251.861,598.071Zm194.6,0L370.61,642.036q0.132,43.83.262,87.669c4.276-.439,19.032-10.5,23.279-13.085L447.771,686v-87.93h-1.308Zm132.089,0V686l56.76,32.451c3.441,2.079,17.059,11.514,20.4,10.991q-0.13-43.83-.261-87.669l-53.882-30.88C596.639,607.974,583.786,598.864,578.552,598.071Zm195.911,0c-5.348.629-13.667,7.659-18.31,10.206L717.18,630.521c-4.26,2.552-17.488,7.859-19.617,11.515v87.669h1.047L774.463,686v-87.93Z"/>
  <circle class="cls-2" cx="512.5" cy="512.5" r="489.5"/>
</svg>
